<svg width="186" height="138" viewBox="0 0 186 138" fill="none" xmlns="http://www.w3.org/2000/svg">
<path d="M33.4893 0C31.7627 0 30.367 1.40509 30.367 3.13636V28.2273C30.367 29.9617 31.7627 31.3636 33.4893 31.3636H67.8349C69.5615 31.3636 70.9572 29.9617 70.9572 28.2273V3.13636C70.9572 1.40509 69.5615 0 67.8349 0H33.4893ZM137.038 26.6591C131.186 26.6591 126.245 28.5423 123.592 31.3636H105.303C104.889 31.3578 104.478 31.4345 104.094 31.5895C103.71 31.7445 103.361 31.9746 103.066 32.2664C102.772 32.5582 102.538 32.906 102.378 33.2894C102.218 33.6728 102.136 34.0844 102.136 34.5C102.136 34.9156 102.218 35.3272 102.378 35.7106C102.538 36.094 102.772 36.4418 103.066 36.7336C103.361 37.0254 103.71 37.2555 104.094 37.4105C104.478 37.5655 104.889 37.6422 105.303 37.6364H121.725C122.928 42.1398 129.212 45.4773 137.038 45.4773C140.492 45.4773 142.762 44.8093 144.179 43.3823C145.943 41.6008 145.939 39.0899 145.93 36.6624L145.923 36.0621L145.93 35.4679C145.939 33.0435 145.947 30.5355 144.179 28.7541C142.762 27.3239 140.5 26.6591 137.057 26.6591H137.038ZM27.2446 37.6364C25.518 37.6364 24.1223 39.0415 24.1223 40.7727V65.8636C24.1223 67.5949 25.518 69 27.2446 69H53.5404C54.5862 69 55.4451 68.1918 55.634 67.1631C56.4123 62.9256 58.8009 58.3072 62.953 56.9038C63.9237 56.5757 64.7125 55.7433 64.7125 54.7187V40.7727C64.7125 39.0415 63.3169 37.6364 61.5902 37.6364H27.2446ZM123.755 41C126.449 61.5777 123.484 89.7137 114.133 100.97C109.275 106.813 103.434 109.773 96.7713 109.773C93.6895 109.773 91.864 107.736 90.8742 106.024C88.4901 101.897 87.867 94.2313 92.0308 83.9998C92.6652 82.441 91.2964 80.6775 89.6282 80.9003C86.4285 81.3277 82.7438 81.5455 78.5618 81.5455C74.8823 81.5455 66.4244 81.5196 60.8035 78.5194C60.2302 78.2137 59.6933 77.8736 59.1875 77.5025C58.4046 76.9283 57.7002 76.2815 57.1233 75.5356C56.869 75.2069 56.4331 75.0915 56.0591 75.2727V75.2727H24.1223C22.3957 75.2727 21 76.6778 21 78.4091C21 80.1435 22.3957 81.5455 24.1223 81.5455H38.2507C41.0427 81.5455 42.4689 85.2051 40.6944 87.3606C35.6503 93.4876 33.7475 99.0057 33.6052 99.506C33.371 100.34 33.488 101.238 33.9345 101.981C34.381 102.724 35.11 103.251 35.953 103.433L80.4952 115.364C82.1831 115.816 83.9229 116.045 85.6702 116.045H115.738C116.931 116.045 117.849 115.007 117.808 113.815C117.798 113.52 117.792 113.219 117.792 112.909C117.792 96.2017 133.841 81.5455 152.138 81.5455V81.5455C153.006 81.5455 153.711 80.8331 153.597 79.9722C151.961 67.6107 144.163 51.8223 139 45C137.707 45.229 135.527 44 134 44C129.398 44 127.199 42.6215 123.755 41ZM65.5907 62.7273C65.2873 62.7273 64.9965 62.8206 64.7125 62.9662C64.7079 62.9686 64.705 62.976 64.7003 62.9784C64.3443 63.164 64.0129 63.4639 63.7002 63.8299C63.6574 63.8798 63.614 63.9242 63.5722 63.9769C63.2636 64.3667 62.9788 64.8136 62.7306 65.3246C62.4182 65.9647 62.1779 66.6794 61.9866 67.4134C61.9262 67.6448 61.899 67.86 61.8524 68.0934C61.7928 68.3915 61.7049 68.686 61.6695 68.9816C61.6957 68.9809 61.7166 68.9646 61.7427 68.9632C61.6946 69.3622 61.5902 69.7733 61.5902 70.1516C61.5902 73.3445 67.3932 75.2727 78.5618 75.2727C89.7366 75.2727 99.0581 73.3476 99.0581 70.1516C99.0581 66.962 97.2684 62.7273 95.0515 62.7273H65.5907ZM152.138 87.8182C138.009 87.8182 124.037 99.0275 124.037 112.909C124.037 121.503 127.752 122.318 130.281 122.318C135.461 122.318 133.404 111.648 145.893 106.636C149.562 105.165 153.169 104.707 156.51 104.707C162.158 104.707 167.044 106.024 170.207 106.024C172.595 106.024 174 105.271 174 102.624C173.997 100.363 169.947 87.8182 152.138 87.8182ZM156.596 111.679C156.13 111.202 155.459 111.007 154.793 111.048C152.402 111.196 150.226 111.654 148.21 112.462C147.95 112.566 147.702 112.674 147.462 112.784C146.894 113.045 146.429 113.502 146.226 114.094C146.015 114.708 145.893 115.36 145.893 116.045C145.893 119.505 148.694 122.318 152.138 122.318C155.582 122.318 158.382 119.505 158.382 116.045C158.382 114.343 157.697 112.806 156.596 111.679ZM40.3377 111.096C39.9661 112.714 39.7339 114.368 39.7339 116.045C39.7339 128.149 49.5412 138 61.5902 138C71.4942 138 79.8681 131.34 82.5439 122.251C82.1693 122.223 81.7933 122.207 81.428 122.11L73.3965 119.954C71.751 124.95 67.1105 128.591 61.5902 128.591C54.7024 128.591 49.1009 122.964 49.1009 116.045C49.1009 115.177 49.2097 114.334 49.3814 113.516L40.3377 111.096ZM164.383 111.715C164.118 111.675 163.906 111.943 163.99 112.198C164.389 113.414 164.627 114.699 164.627 116.045C164.627 122.964 159.025 128.591 152.138 128.591C146.888 128.591 142.43 125.304 140.588 120.682C140.518 120.507 140.272 120.494 140.191 120.664V120.664C139.196 122.723 137.712 125.719 134.873 127.368C134.332 127.682 134.105 128.386 134.471 128.893C138.48 134.448 144.955 138 152.138 138C164.187 138 173.994 128.149 173.994 116.045C173.994 114.982 173.891 113.929 173.726 112.888C173.635 112.313 173.058 111.963 172.486 112.074C171.786 112.212 171.034 112.297 170.201 112.297C168.399 112.297 166.45 112.016 164.383 111.715V111.715ZM55.437 115.145C55.3933 115.443 55.3456 115.738 55.3456 116.045C55.3456 119.505 58.1463 122.318 61.5902 122.318C64.2223 122.318 66.4688 120.664 67.3836 118.343L55.437 115.145Z" fill="#707070"/>
<line x1="2.21029" y1="14.6661" x2="183.21" y2="134.666" stroke="#707070" stroke-width="8"/>
</svg>
