<svg width="24" height="89" viewBox="0 0 24 89" fill="none" xmlns="http://www.w3.org/2000/svg">
<circle cx="13.0568" cy="6.9887" r="6.05682" fill="#ED6D7E"/>
<circle cx="13.0568" cy="81.9887" r="6.05682" fill="#ED6D7E"/>
<line x1="13.5" y1="12" x2="13.5" y2="78" stroke="#ED6D7E"/>
<path d="M14.4142 5.60652C13.6332 4.79783 12.3668 4.79783 11.5858 5.60652C11.4004 5.79722 11.253 6.02501 11.1524 6.27651C11.0518 6.528 11 6.79813 11 7.07101C11 7.3439 11.0518 7.61402 11.1524 7.86552C11.253 8.11702 11.4004 8.34481 11.5858 8.53551L12.9999 10L14.4142 8.53551C14.5996 8.34481 14.747 8.11702 14.8476 7.86552C14.9482 7.61402 15 7.3439 15 7.07101C15 6.79813 14.9482 6.528 14.8476 6.27651C14.747 6.02501 14.5996 5.79722 14.4142 5.60652ZM12.9999 7.76313C12.8329 7.76313 12.6761 7.69471 12.5579 7.57049C12.4408 7.44701 12.375 7.27968 12.375 7.10523C12.375 6.93077 12.4408 6.76344 12.5579 6.63996C12.6759 6.51574 12.8329 6.44732 12.9999 6.44732C13.1669 6.44732 13.3239 6.51574 13.4419 6.63996C13.559 6.76344 13.6247 6.93077 13.6247 7.10523C13.6247 7.27968 13.559 7.44701 13.4419 7.57049C13.3239 7.69471 13.1669 7.76313 12.9999 7.76313Z" fill="white"/>
<path d="M14.4142 79.6065C13.6332 78.7978 12.3668 78.7978 11.5858 79.6065C11.4004 79.7972 11.253 80.025 11.1524 80.2765C11.0518 80.528 11 80.7981 11 81.071C11 81.3439 11.0518 81.614 11.1524 81.8655C11.253 82.117 11.4004 82.3448 11.5858 82.5355L12.9999 84L14.4142 82.5355C14.5996 82.3448 14.747 82.117 14.8476 81.8655C14.9482 81.614 15 81.3439 15 81.071C15 80.7981 14.9482 80.528 14.8476 80.2765C14.747 80.025 14.5996 79.7972 14.4142 79.6065ZM12.9999 81.7631C12.8329 81.7631 12.6761 81.6947 12.5579 81.5705C12.4408 81.447 12.375 81.2797 12.375 81.1052C12.375 80.9308 12.4408 80.7634 12.5579 80.64C12.6759 80.5157 12.8329 80.4473 12.9999 80.4473C13.1669 80.4473 13.3239 80.5157 13.4419 80.64C13.559 80.7634 13.6247 80.9308 13.6247 81.1052C13.6247 81.2797 13.559 81.447 13.4419 81.5705C13.3239 81.6947 13.1669 81.7631 12.9999 81.7631Z" fill="white"/>
</svg>
