<svg width="23" height="23" viewBox="0 0 23 23" fill="none" xmlns="http://www.w3.org/2000/svg">
<path d="M15.3335 8.66675C15.8858 8.66675 16.3335 8.21903 16.3335 7.66675C16.3335 7.11446 15.8858 6.66675 15.3335 6.66675V8.66675ZM7.11921 14.3334C6.56693 14.3334 6.11921 14.7811 6.11921 15.3334C6.11921 15.8857 6.56693 16.3334 7.11921 16.3334V14.3334ZM15.3335 6.66675H8.76211V8.66675H15.3335V6.66675ZM8.76211 6.66675C7.82938 6.66675 7.04565 7.00076 6.49775 7.57605C5.96236 8.1382 5.70848 8.8717 5.7085 9.58343C5.70851 10.2952 5.9624 11.0286 6.49779 11.5908C7.04568 12.1661 7.8294 12.5001 8.76211 12.5001V10.5001C8.32578 10.5001 8.0827 10.3549 7.94605 10.2115C7.79689 10.0548 7.7085 9.83001 7.7085 9.5834C7.70849 9.33679 7.79687 9.11196 7.94601 8.95537C8.08265 8.8119 8.32574 8.66675 8.76211 8.66675V6.66675ZM8.76211 12.5001C8.7681 12.5001 8.77409 12.5001 8.78007 12.5001C8.78604 12.5001 8.79202 12.5001 8.79799 12.5001C8.80396 12.5001 8.80992 12.5001 8.81588 12.5001C8.82183 12.5001 8.82779 12.5001 8.83373 12.5001C8.83968 12.5001 8.84562 12.5001 8.85156 12.5001C8.8575 12.5001 8.86343 12.5001 8.86935 12.5001C8.87528 12.5001 8.8812 12.5001 8.88712 12.5001C8.89303 12.5001 8.89894 12.5001 8.90485 12.5001C8.91075 12.5001 8.91665 12.5001 8.92255 12.5001C8.92844 12.5001 8.93433 12.5001 8.94022 12.5001C8.9461 12.5001 8.95198 12.5001 8.95785 12.5001C8.96373 12.5001 8.96959 12.5001 8.97546 12.5001C8.98132 12.5001 8.98718 12.5001 8.99303 12.5001C8.99888 12.5001 9.00473 12.5001 9.01057 12.5001C9.01641 12.5001 9.02225 12.5001 9.02808 12.5001C9.03391 12.5001 9.03974 12.5001 9.04556 12.5001C9.05138 12.5001 9.0572 12.5001 9.06301 12.5001C9.06882 12.5001 9.07462 12.5001 9.08043 12.5001C9.08623 12.5001 9.09202 12.5001 9.09781 12.5001C9.1036 12.5001 9.10938 12.5001 9.11516 12.5001C9.12094 12.5001 9.12672 12.5001 9.13248 12.5001C9.13825 12.5001 9.14402 12.5001 9.14978 12.5001C9.15553 12.5001 9.16129 12.5001 9.16703 12.5001C9.17278 12.5001 9.17853 12.5001 9.18426 12.5001C9.19 12.5001 9.19573 12.5001 9.20146 12.5001C9.20719 12.5001 9.21291 12.5001 9.21862 12.5001C9.22434 12.5001 9.23005 12.5001 9.23576 12.5001C9.24146 12.5001 9.24717 12.5001 9.25286 12.5001C9.25856 12.5001 9.26425 12.5001 9.26993 12.5001C9.27562 12.5001 9.2813 12.5001 9.28697 12.5001C9.29265 12.5001 9.29832 12.5001 9.30398 12.5001C9.30965 12.5001 9.31531 12.5001 9.32096 12.5001C9.32662 12.5001 9.33226 12.5001 9.33791 12.5001C9.34355 12.5001 9.34919 12.5001 9.35482 12.5001C9.36046 12.5001 9.36609 12.5001 9.37171 12.5001C9.37733 12.5001 9.38295 12.5001 9.38856 12.5001C9.39418 12.5001 9.39978 12.5001 9.40539 12.5001C9.41099 12.5001 9.41659 12.5001 9.42218 12.5001C9.42777 12.5001 9.43336 12.5001 9.43894 12.5001C9.44452 12.5001 9.4501 12.5001 9.45567 12.5001C9.46124 12.5001 9.46681 12.5001 9.47237 12.5001C9.47793 12.5001 9.48348 12.5001 9.48904 12.5001C9.49459 12.5001 9.50013 12.5001 9.50567 12.5001C9.51121 12.5001 9.51675 12.5001 9.52228 12.5001C9.52781 12.5001 9.53333 12.5001 9.53885 12.5001C9.54437 12.5001 9.54989 12.5001 9.5554 12.5001C9.56091 12.5001 9.56641 12.5001 9.57191 12.5001C9.57741 12.5001 9.5829 12.5001 9.58839 12.5001C9.59388 12.5001 9.59937 12.5001 9.60484 12.5001C9.61032 12.5001 9.6158 12.5001 9.62127 12.5001C9.62673 12.5001 9.6322 12.5001 9.63766 12.5001C9.64311 12.5001 9.64857 12.5001 9.65402 12.5001C9.65946 12.5001 9.66491 12.5001 9.67034 12.5001C9.67578 12.5001 9.68121 12.5001 9.68664 12.5001C9.69207 12.5001 9.69749 12.5001 9.70291 12.5001C9.70833 12.5001 9.71374 12.5001 9.71915 12.5001C9.72455 12.5001 9.72995 12.5001 9.73535 12.5001C9.74075 12.5001 9.74614 12.5001 9.75153 12.5001C9.75691 12.5001 9.7623 12.5001 9.76767 12.5001C9.77305 12.5001 9.77842 12.5001 9.78379 12.5001C9.78915 12.5001 9.79451 12.5001 9.79987 12.5001C9.80523 12.5001 9.81058 12.5001 9.81592 12.5001C9.82127 12.5001 9.82661 12.5001 9.83194 12.5001C9.83728 12.5001 9.84261 12.5001 9.84794 12.5001C9.85326 12.5001 9.85858 12.5001 9.8639 12.5001C9.86921 12.5001 9.87452 12.5001 9.87983 12.5001C9.88513 12.5001 9.89043 12.5001 9.89573 12.5001C9.90102 12.5001 9.90631 12.5001 9.9116 12.5001C9.91688 12.5001 9.92216 12.5001 9.92744 12.5001C9.93271 12.5001 9.93798 12.5001 9.94325 12.5001C9.94851 12.5001 9.95377 12.5001 9.95903 12.5001C9.96428 12.5001 9.96953 12.5001 9.97478 12.5001C9.98002 12.5001 9.98526 12.5001 9.99049 12.5001C9.99573 12.5001 10.001 12.5001 10.0062 12.5001C10.0114 12.5001 10.0166 12.5001 10.0218 12.5001C10.0271 12.5001 10.0323 12.5001 10.0375 12.5001C10.0427 12.5001 10.0479 12.5001 10.0531 12.5001C10.0583 12.5001 10.0634 12.5001 10.0686 12.5001C10.0738 12.5001 10.079 12.5001 10.0842 12.5001C10.0893 12.5001 10.0945 12.5001 10.0997 12.5001C10.1048 12.5001 10.11 12.5001 10.1151 12.5001C10.1203 12.5001 10.1255 12.5001 10.1306 12.5001C10.1357 12.5001 10.1409 12.5001 10.146 12.5001C10.1511 12.5001 10.1563 12.5001 10.1614 12.5001C10.1665 12.5001 10.1716 12.5001 10.1768 12.5001C10.1819 12.5001 10.187 12.5001 10.1921 12.5001C10.1972 12.5001 10.2023 12.5001 10.2074 12.5001C10.2125 12.5001 10.2176 12.5001 10.2226 12.5001C10.2277 12.5001 10.2328 12.5001 10.2379 12.5001C10.2429 12.5001 10.248 12.5001 10.2531 12.5001C10.2581 12.5001 10.2632 12.5001 10.2683 12.5001C10.2733 12.5001 10.2784 12.5001 10.2834 12.5001C10.2884 12.5001 10.2935 12.5001 10.2985 12.5001C10.3035 12.5001 10.3086 12.5001 10.3136 12.5001C10.3186 12.5001 10.3236 12.5001 10.3287 12.5001C10.3337 12.5001 10.3387 12.5001 10.3437 12.5001C10.3487 12.5001 10.3537 12.5001 10.3587 12.5001C10.3637 12.5001 10.3687 12.5001 10.3736 12.5001C10.3786 12.5001 10.3836 12.5001 10.3886 12.5001C10.3936 12.5001 10.3985 12.5001 10.4035 12.5001C10.4084 12.5001 10.4134 12.5001 10.4184 12.5001C10.4233 12.5001 10.4283 12.5001 10.4332 12.5001C10.4381 12.5001 10.4431 12.5001 10.448 12.5001C10.453 12.5001 10.4579 12.5001 10.4628 12.5001C10.4677 12.5001 10.4727 12.5001 10.4776 12.5001C10.4825 12.5001 10.4874 12.5001 10.4923 12.5001C10.4972 12.5001 10.5021 12.5001 10.507 12.5001C10.5119 12.5001 10.5168 12.5001 10.5217 12.5001C10.5265 12.5001 10.5314 12.5001 10.5363 12.5001C10.5412 12.5001 10.546 12.5001 10.5509 12.5001C10.5558 12.5001 10.5606 12.5001 10.5655 12.5001C10.5703 12.5001 10.5752 12.5001 10.58 12.5001C10.5849 12.5001 10.5897 12.5001 10.5946 12.5001C10.5994 12.5001 10.6042 12.5001 10.6091 12.5001C10.6139 12.5001 10.6187 12.5001 10.6235 12.5001C10.6283 12.5001 10.6331 12.5001 10.6379 12.5001C10.6427 12.5001 10.6476 12.5001 10.6523 12.5001C10.6571 12.5001 10.6619 12.5001 10.6667 12.5001C10.6715 12.5001 10.6763 12.5001 10.6811 12.5001C10.6858 12.5001 10.6906 12.5001 10.6954 12.5001C10.7001 12.5001 10.7049 12.5001 10.7097 12.5001C10.7144 12.5001 10.7192 12.5001 10.7239 12.5001C10.7287 12.5001 10.7334 12.5001 10.7381 12.5001C10.7429 12.5001 10.7476 12.5001 10.7523 12.5001C10.7571 12.5001 10.7618 12.5001 10.7665 12.5001C10.7712 12.5001 10.7759 12.5001 10.7806 12.5001C10.7854 12.5001 10.7901 12.5001 10.7948 12.5001C10.7995 12.5001 10.8041 12.5001 10.8088 12.5001C10.8135 12.5001 10.8182 12.5001 10.8229 12.5001C10.8276 12.5001 10.8322 12.5001 10.8369 12.5001C10.8416 12.5001 10.8462 12.5001 10.8509 12.5001C10.8556 12.5001 10.8602 12.5001 10.8649 12.5001C10.8695 12.5001 10.8742 12.5001 10.8788 12.5001C10.8834 12.5001 10.8881 12.5001 10.8927 12.5001C10.8973 12.5001 10.9019 12.5001 10.9066 12.5001C10.9112 12.5001 10.9158 12.5001 10.9204 12.5001C10.925 12.5001 10.9296 12.5001 10.9342 12.5001C10.9388 12.5001 10.9434 12.5001 10.948 12.5001C10.9526 12.5001 10.9572 12.5001 10.9618 12.5001C10.9664 12.5001 10.9709 12.5001 10.9755 12.5001C10.9801 12.5001 10.9846 12.5001 10.9892 12.5001C10.9938 12.5001 10.9983 12.5001 11.0029 12.5001C11.0074 12.5001 11.012 12.5001 11.0165 12.5001C11.0211 12.5001 11.0256 12.5001 11.0301 12.5001C11.0347 12.5001 11.0392 12.5001 11.0437 12.5001C11.0482 12.5001 11.0528 12.5001 11.0573 12.5001C11.0618 12.5001 11.0663 12.5001 11.0708 12.5001C11.0753 12.5001 11.0798 12.5001 11.0843 12.5001C11.0888 12.5001 11.0933 12.5001 11.0978 12.5001C11.1023 12.5001 11.1067 12.5001 11.1112 12.5001C11.1157 12.5001 11.1202 12.5001 11.1246 12.5001C11.1291 12.5001 11.1336 12.5001 11.138 12.5001C11.1425 12.5001 11.1469 12.5001 11.1514 12.5001C11.1558 12.5001 11.1602 12.5001 11.1647 12.5001C11.1691 12.5001 11.1736 12.5001 11.178 12.5001C11.1824 12.5001 11.1868 12.5001 11.1913 12.5001C11.1957 12.5001 11.2001 12.5001 11.2045 12.5001C11.2089 12.5001 11.2133 12.5001 11.2177 12.5001C11.2221 12.5001 11.2265 12.5001 11.2309 12.5001C11.2353 12.5001 11.2397 12.5001 11.244 12.5001C11.2484 12.5001 11.2528 12.5001 11.2572 12.5001C11.2615 12.5001 11.2659 12.5001 11.2703 12.5001C11.2746 12.5001 11.279 12.5001 11.2833 12.5001C11.2877 12.5001 11.292 12.5001 11.2964 12.5001C11.3007 12.5001 11.305 12.5001 11.3094 12.5001C11.3137 12.5001 11.318 12.5001 11.3224 12.5001C11.3267 12.5001 11.331 12.5001 11.3353 12.5001C11.3396 12.5001 11.3439 12.5001 11.3482 12.5001C11.3525 12.5001 11.3568 12.5001 11.3611 12.5001C11.3654 12.5001 11.3697 12.5001 11.374 12.5001C11.3783 12.5001 11.3826 12.5001 11.3868 12.5001C11.3911 12.5001 11.3954 12.5001 11.3996 12.5001C11.4039 12.5001 11.4082 12.5001 11.4124 12.5001C11.4167 12.5001 11.4209 12.5001 11.4252 12.5001C11.4294 12.5001 11.4337 12.5001 11.4379 12.5001C11.4421 12.5001 11.4464 12.5001 11.4506 12.5001C11.4548 12.5001 11.4591 12.5001 11.4633 12.5001C11.4675 12.5001 11.4717 12.5001 11.4759 12.5001C11.4801 12.5001 11.4843 12.5001 11.4885 12.5001C11.4927 12.5001 11.4969 12.5001 11.5011 12.5001C11.5053 12.5001 11.5095 12.5001 11.5137 12.5001C11.5179 12.5001 11.522 12.5001 11.5262 12.5001C11.5304 12.5001 11.5345 12.5001 11.5387 12.5001C11.5429 12.5001 11.547 12.5001 11.5512 12.5001C11.5553 12.5001 11.5595 12.5001 11.5636 12.5001C11.5678 12.5001 11.5719 12.5001 11.576 12.5001C11.5802 12.5001 11.5843 12.5001 11.5884 12.5001C11.5925 12.5001 11.5967 12.5001 11.6008 12.5001C11.6049 12.5001 11.609 12.5001 11.6131 12.5001C11.6172 12.5001 11.6213 12.5001 11.6254 12.5001C11.6295 12.5001 11.6336 12.5001 11.6377 12.5001C11.6418 12.5001 11.6459 12.5001 11.6499 12.5001C11.654 12.5001 11.6581 12.5001 11.6622 12.5001C11.6662 12.5001 11.6703 12.5001 11.6743 12.5001C11.6784 12.5001 11.6825 12.5001 11.6865 12.5001C11.6906 12.5001 11.6946 12.5001 11.6986 12.5001C11.7027 12.5001 11.7067 12.5001 11.7107 12.5001C11.7148 12.5001 11.7188 12.5001 11.7228 12.5001C11.7269 12.5001 11.7309 12.5001 11.7349 12.5001C11.7389 12.5001 11.7429 12.5001 11.7469 12.5001C11.7509 12.5001 11.7549 12.5001 11.7589 12.5001C11.7629 12.5001 11.7669 12.5001 11.7709 12.5001C11.7749 12.5001 11.7788 12.5001 11.7828 12.5001C11.7868 12.5001 11.7908 12.5001 11.7947 12.5001C11.7987 12.5001 11.8026 12.5001 11.8066 12.5001C11.8106 12.5001 11.8145 12.5001 11.8185 12.5001C11.8224 12.5001 11.8264 12.5001 11.8303 12.5001C11.8342 12.5001 11.8382 12.5001 11.8421 12.5001C11.846 12.5001 11.8499 12.5001 11.8539 12.5001C11.8578 12.5001 11.8617 12.5001 11.8656 12.5001C11.8695 12.5001 11.8734 12.5001 11.8773 12.5001C11.8812 12.5001 11.8851 12.5001 11.889 12.5001C11.8929 12.5001 11.8968 12.5001 11.9007 12.5001C11.9046 12.5001 11.9084 12.5001 11.9123 12.5001C11.9162 12.5001 11.9201 12.5001 11.9239 12.5001C11.9278 12.5001 11.9317 12.5001 11.9355 12.5001C11.9394 12.5001 11.9432 12.5001 11.9471 12.5001C11.9509 12.5001 11.9548 12.5001 11.9586 12.5001C11.9624 12.5001 11.9663 12.5001 11.9701 12.5001C11.9739 12.5001 11.9777 12.5001 11.9816 12.5001C11.9854 12.5001 11.9892 12.5001 11.993 12.5001C11.9968 12.5001 12.0006 12.5001 12.0044 12.5001C12.0082 12.5001 12.012 12.5001 12.0158 12.5001C12.0196 12.5001 12.0234 12.5001 12.0272 12.5001C12.0309 12.5001 12.0347 12.5001 12.0385 12.5001C12.0423 12.5001 12.046 12.5001 12.0498 12.5001C12.0536 12.5001 12.0573 12.5001 12.0611 12.5001C12.0648 12.5001 12.0686 12.5001 12.0723 12.5001C12.0761 12.5001 12.0798 12.5001 12.0836 12.5001C12.0873 12.5001 12.091 12.5001 12.0948 12.5001C12.0985 12.5001 12.1022 12.5001 12.1059 12.5001C12.1096 12.5001 12.1134 12.5001 12.1171 12.5001C12.1208 12.5001 12.1245 12.5001 12.1282 12.5001C12.1319 12.5001 12.1356 12.5001 12.1393 12.5001C12.143 12.5001 12.1467 12.5001 12.1503 12.5001C12.154 12.5001 12.1577 12.5001 12.1614 12.5001C12.165 12.5001 12.1687 12.5001 12.1724 12.5001C12.176 12.5001 12.1797 12.5001 12.1834 12.5001C12.187 12.5001 12.1907 12.5001 12.1943 12.5001C12.198 12.5001 12.2016 12.5001 12.2052 12.5001C12.2089 12.5001 12.2125 12.5001 12.2161 12.5001C12.2198 12.5001 12.2234 12.5001 12.227 12.5001C12.2306 12.5001 12.2342 12.5001 12.2378 12.5001C12.2415 12.5001 12.2451 12.5001 12.2487 12.5001C12.2523 12.5001 12.2559 12.5001 12.2595 12.5001C12.263 12.5001 12.2666 12.5001 12.2702 12.5001C12.2738 12.5001 12.2774 12.5001 12.281 12.5001C12.2845 12.5001 12.2881 12.5001 12.2917 12.5001C12.2952 12.5001 12.2988 12.5001 12.3023 12.5001C12.3059 12.5001 12.3095 12.5001 12.313 12.5001C12.3166 12.5001 12.3201 12.5001 12.3236 12.5001C12.3272 12.5001 12.3307 12.5001 12.3342 12.5001C12.3378 12.5001 12.3413 12.5001 12.3448 12.5001C12.3483 12.5001 12.3518 12.5001 12.3554 12.5001C12.3589 12.5001 12.3624 12.5001 12.3659 12.5001C12.3694 12.5001 12.3729 12.5001 12.3764 12.5001C12.3799 12.5001 12.3834 12.5001 12.3868 12.5001C12.3903 12.5001 12.3938 12.5001 12.3973 12.5001C12.4008 12.5001 12.4042 12.5001 12.4077 12.5001C12.4112 12.5001 12.4146 12.5001 12.4181 12.5001C12.4215 12.5001 12.425 12.5001 12.4285 12.5001C12.4319 12.5001 12.4353 12.5001 12.4388 12.5001C12.4422 12.5001 12.4457 12.5001 12.4491 12.5001C12.4525 12.5001 12.456 12.5001 12.4594 12.5001C12.4628 12.5001 12.4662 12.5001 12.4696 12.5001C12.473 12.5001 12.4765 12.5001 12.4799 12.5001C12.4833 12.5001 12.4867 12.5001 12.4901 12.5001C12.4935 12.5001 12.4968 12.5001 12.5002 12.5001C12.5036 12.5001 12.507 12.5001 12.5104 12.5001C12.5138 12.5001 12.5171 12.5001 12.5205 12.5001C12.5239 12.5001 12.5272 12.5001 12.5306 12.5001C12.534 12.5001 12.5373 12.5001 12.5407 12.5001C12.544 12.5001 12.5474 12.5001 12.5507 12.5001C12.5541 12.5001 12.5574 12.5001 12.5607 12.5001C12.5641 12.5001 12.5674 12.5001 12.5707 12.5001C12.574 12.5001 12.5774 12.5001 12.5807 12.5001C12.584 12.5001 12.5873 12.5001 12.5906 12.5001C12.5939 12.5001 12.5972 12.5001 12.6005 12.5001C12.6038 12.5001 12.6071 12.5001 12.6104 12.5001C12.6137 12.5001 12.617 12.5001 12.6203 12.5001C12.6236 12.5001 12.6268 12.5001 12.6301 12.5001C12.6334 12.5001 12.6367 12.5001 12.6399 12.5001C12.6432 12.5001 12.6464 12.5001 12.6497 12.5001C12.653 12.5001 12.6562 12.5001 12.6595 12.5001C12.6627 12.5001 12.6659 12.5001 12.6692 12.5001C12.6724 12.5001 12.6757 12.5001 12.6789 12.5001C12.6821 12.5001 12.6853 12.5001 12.6886 12.5001C12.6918 12.5001 12.695 12.5001 12.6982 12.5001C12.7014 12.5001 12.7046 12.5001 12.7078 12.5001C12.711 12.5001 12.7142 12.5001 12.7174 12.5001C12.7206 12.5001 12.7238 12.5001 12.727 12.5001C12.7302 12.5001 12.7334 12.5001 12.7365 12.5001C12.7397 12.5001 12.7429 12.5001 12.7461 12.5001C12.7492 12.5001 12.7524 12.5001 12.7556 12.5001C12.7587 12.5001 12.7619 12.5001 12.765 12.5001C12.7682 12.5001 12.7713 12.5001 12.7745 12.5001C12.7776 12.5001 12.7807 12.5001 12.7839 12.5001C12.787 12.5001 12.7901 12.5001 12.7933 12.5001C12.7964 12.5001 12.7995 12.5001 12.8026 12.5001C12.8057 12.5001 12.8089 12.5001 12.812 12.5001C12.8151 12.5001 12.8182 12.5001 12.8213 12.5001C12.8244 12.5001 12.8275 12.5001 12.8306 12.5001C12.8336 12.5001 12.8367 12.5001 12.8398 12.5001C12.8429 12.5001 12.846 12.5001 12.8491 12.5001C12.8521 12.5001 12.8552 12.5001 12.8583 12.5001C12.8613 12.5001 12.8644 12.5001 12.8674 12.5001C12.8705 12.5001 12.8736 12.5001 12.8766 12.5001C12.8796 12.5001 12.8827 12.5001 12.8857 12.5001C12.8888 12.5001 12.8918 12.5001 12.8948 12.5001C12.8979 12.5001 12.9009 12.5001 12.9039 12.5001C12.9069 12.5001 12.91 12.5001 12.913 12.5001C12.916 12.5001 12.919 12.5001 12.922 12.5001C12.925 12.5001 12.928 12.5001 12.931 12.5001C12.934 12.5001 12.937 12.5001 12.94 12.5001C12.943 12.5001 12.9459 12.5001 12.9489 12.5001C12.9519 12.5001 12.9549 12.5001 12.9578 12.5001C12.9608 12.5001 12.9638 12.5001 12.9667 12.5001C12.9697 12.5001 12.9727 12.5001 12.9756 12.5001C12.9786 12.5001 12.9815 12.5001 12.9845 12.5001C12.9874 12.5001 12.9904 12.5001 12.9933 12.5001C12.9962 12.5001 12.9992 12.5001 13.0021 12.5001C13.005 12.5001 13.0079 12.5001 13.0109 12.5001C13.0138 12.5001 13.0167 12.5001 13.0196 12.5001C13.0225 12.5001 13.0254 12.5001 13.0283 12.5001C13.0312 12.5001 13.0341 12.5001 13.037 12.5001C13.0399 12.5001 13.0428 12.5001 13.0457 12.5001C13.0486 12.5001 13.0515 12.5001 13.0543 12.5001C13.0572 12.5001 13.0601 12.5001 13.063 12.5001C13.0658 12.5001 13.0687 12.5001 13.0716 12.5001C13.0744 12.5001 13.0773 12.5001 13.0801 12.5001C13.083 12.5001 13.0858 12.5001 13.0887 12.5001C13.0915 12.5001 13.0944 12.5001 13.0972 12.5001C13.1 12.5001 13.1029 12.5001 13.1057 12.5001C13.1085 12.5001 13.1113 12.5001 13.1142 12.5001C13.117 12.5001 13.1198 12.5001 13.1226 12.5001C13.1254 12.5001 13.1282 12.5001 13.131 12.5001C13.1338 12.5001 13.1366 12.5001 13.1394 12.5001C13.1422 12.5001 13.145 12.5001 13.1478 12.5001C13.1506 12.5001 13.1533 12.5001 13.1561 12.5001C13.1589 12.5001 13.1617 12.5001 13.1644 12.5001C13.1672 12.5001 13.17 12.5001 13.1727 12.5001C13.1755 12.5001 13.1782 12.5001 13.181 12.5001C13.1837 12.5001 13.1865 12.5001 13.1892 12.5001C13.192 12.5001 13.1947 12.5001 13.1975 12.5001C13.2002 12.5001 13.2029 12.5001 13.2056 12.5001C13.2084 12.5001 13.2111 12.5001 13.2138 12.5001C13.2165 12.5001 13.2192 12.5001 13.222 12.5001C13.2247 12.5001 13.2274 12.5001 13.2301 12.5001C13.2328 12.5001 13.2355 12.5001 13.2382 12.5001C13.2409 12.5001 13.2435 12.5001 13.2462 12.5001C13.2489 12.5001 13.2516 12.5001 13.2543 12.5001C13.2569 12.5001 13.2596 12.5001 13.2623 12.5001C13.265 12.5001 13.2676 12.5001 13.2703 12.5001C13.2729 12.5001 13.2756 12.5001 13.2782 12.5001C13.2809 12.5001 13.2835 12.5001 13.2862 12.5001C13.2888 12.5001 13.2915 12.5001 13.2941 12.5001C13.2967 12.5001 13.2994 12.5001 13.302 12.5001C13.3046 12.5001 13.3073 12.5001 13.3099 12.5001C13.3125 12.5001 13.3151 12.5001 13.3177 12.5001C13.3203 12.5001 13.3229 12.5001 13.3255 12.5001C13.3281 12.5001 13.3307 12.5001 13.3333 12.5001C13.3359 12.5001 13.3385 12.5001 13.3411 12.5001C13.3437 12.5001 13.3463 12.5001 13.3488 12.5001C13.3514 12.5001 13.354 12.5001 13.3566 12.5001C13.3591 12.5001 13.3617 12.5001 13.3643 12.5001C13.3668 12.5001 13.3694 12.5001 13.3719 12.5001C13.3745 12.5001 13.377 12.5001 13.3796 12.5001C13.3821 12.5001 13.3847 12.5001 13.3872 12.5001C13.3897 12.5001 13.3923 12.5001 13.3948 12.5001C13.3973 12.5001 13.3998 12.5001 13.4024 12.5001C13.4049 12.5001 13.4074 12.5001 13.4099 12.5001C13.4124 12.5001 13.4149 12.5001 13.4174 12.5001C13.4199 12.5001 13.4224 12.5001 13.4249 12.5001C13.4274 12.5001 13.4299 12.5001 13.4324 12.5001C13.4349 12.5001 13.4374 12.5001 13.4399 12.5001C13.4423 12.5001 13.4448 12.5001 13.4473 12.5001C13.4498 12.5001 13.4522 12.5001 13.4547 12.5001C13.4572 12.5001 13.4596 12.5001 13.4621 12.5001C13.4645 12.5001 13.467 12.5001 13.4694 12.5001C13.4719 12.5001 13.4743 12.5001 13.4768 12.5001C13.4792 12.5001 13.4816 12.5001 13.4841 12.5001C13.4865 12.5001 13.4889 12.5001 13.4913 12.5001C13.4938 12.5001 13.4962 12.5001 13.4986 12.5001C13.501 12.5001 13.5034 12.5001 13.5058 12.5001C13.5082 12.5001 13.5106 12.5001 13.513 12.5001C13.5154 12.5001 13.5178 12.5001 13.5202 12.5001C13.5226 12.5001 13.525 12.5001 13.5274 12.5001C13.5298 12.5001 13.5321 12.5001 13.5345 12.5001C13.5369 12.5001 13.5393 12.5001 13.5416 12.5001C13.544 12.5001 13.5463 12.5001 13.5487 12.5001C13.5511 12.5001 13.5534 12.5001 13.5558 12.5001C13.5581 12.5001 13.5605 12.5001 13.5628 12.5001C13.5651 12.5001 13.5675 12.5001 13.5698 12.5001C13.5722 12.5001 13.5745 12.5001 13.5768 12.5001C13.5791 12.5001 13.5815 12.5001 13.5838 12.5001C13.5861 12.5001 13.5884 12.5001 13.5907 12.5001C13.593 12.5001 13.5953 12.5001 13.5976 12.5001C13.5999 12.5001 13.6022 12.5001 13.6045 12.5001C13.6068 12.5001 13.6091 12.5001 13.6114 12.5001C13.6137 12.5001 13.616 12.5001 13.6182 12.5001C13.6205 12.5001 13.6228 12.5001 13.6251 12.5001C13.6273 12.5001 13.6296 12.5001 13.6319 12.5001C13.6341 12.5001 13.6364 12.5001 13.6386 12.5001C13.6409 12.5001 13.6431 12.5001 13.6454 12.5001C13.6476 12.5001 13.6499 12.5001 13.6521 12.5001C13.6544 12.5001 13.6566 12.5001 13.6588 12.5001C13.6611 12.5001 13.6633 12.5001 13.6655 12.5001C13.6677 12.5001 13.6699 12.5001 13.6722 12.5001C13.6744 12.5001 13.6766 12.5001 13.6788 12.5001C13.681 12.5001 13.6832 12.5001 13.6854 12.5001C13.6876 12.5001 13.6898 12.5001 13.692 12.5001C13.6942 12.5001 13.6964 12.5001 13.6985 12.5001C13.7007 12.5001 13.7029 12.5001 13.7051 12.5001C13.7073 12.5001 13.7094 12.5001 13.7116 12.5001C13.7138 12.5001 13.7159 12.5001 13.7181 12.5001C13.7202 12.5001 13.7224 12.5001 13.7245 12.5001C13.7267 12.5001 13.7288 12.5001 13.731 12.5001C13.7331 12.5001 13.7353 12.5001 13.7374 12.5001C13.7395 12.5001 13.7417 12.5001 13.7438 12.5001C13.7459 12.5001 13.7481 12.5001 13.7502 12.5001C13.7523 12.5001 13.7544 12.5001 13.7565 12.5001C13.7586 12.5001 13.7607 12.5001 13.7628 12.5001C13.765 12.5001 13.7671 12.5001 13.7691 12.5001C13.7712 12.5001 13.7733 12.5001 13.7754 12.5001C13.7775 12.5001 13.7796 12.5001 13.7817 12.5001C13.7838 12.5001 13.7858 12.5001 13.7879 12.5001C13.79 12.5001 13.7921 12.5001 13.7941 12.5001C13.7962 12.5001 13.7982 12.5001 13.8003 12.5001C13.8024 12.5001 13.8044 12.5001 13.8065 12.5001C13.8085 12.5001 13.8106 12.5001 13.8126 12.5001C13.8146 12.5001 13.8167 12.5001 13.8187 12.5001C13.8207 12.5001 13.8228 12.5001 13.8248 12.5001C13.8268 12.5001 13.8289 12.5001 13.8309 12.5001C13.8329 12.5001 13.8349 12.5001 13.8369 12.5001C13.8389 12.5001 13.8409 12.5001 13.8429 12.5001C13.8449 12.5001 13.8469 12.5001 13.8489 12.5001C13.8509 12.5001 13.8529 12.5001 13.8549 12.5001C13.8569 12.5001 13.8589 12.5001 13.8609 12.5001C13.8628 12.5001 13.8648 12.5001 13.8668 12.5001C13.8688 12.5001 13.8707 12.5001 13.8727 12.5001C13.8747 12.5001 13.8766 12.5001 13.8786 12.5001C13.8805 12.5001 13.8825 12.5001 13.8844 12.5001C13.8864 12.5001 13.8883 12.5001 13.8903 12.5001C13.8922 12.5001 13.8941 12.5001 13.8961 12.5001C13.898 12.5001 13.8999 12.5001 13.9019 12.5001C13.9038 12.5001 13.9057 12.5001 13.9076 12.5001C13.9096 12.5001 13.9115 12.5001 13.9134 12.5001C13.9153 12.5001 13.9172 12.5001 13.9191 12.5001C13.921 12.5001 13.9229 12.5001 13.9248 12.5001C13.9267 12.5001 13.9286 12.5001 13.9305 12.5001C13.9324 12.5001 13.9342 12.5001 13.9361 12.5001C13.938 12.5001 13.9399 12.5001 13.9418 12.5001C13.9436 12.5001 13.9455 12.5001 13.9474 12.5001C13.9492 12.5001 13.9511 12.5001 13.9529 12.5001C13.9548 12.5001 13.9567 12.5001 13.9585 12.5001C13.9603 12.5001 13.9622 12.5001 13.964 12.5001C13.9659 12.5001 13.9677 12.5001 13.9696 12.5001C13.9714 12.5001 13.9732 12.5001 13.975 12.5001C13.9769 12.5001 13.9787 12.5001 13.9805 12.5001C13.9823 12.5001 13.9841 12.5001 13.986 12.5001C13.9878 12.5001 13.9896 12.5001 13.9914 12.5001C13.9932 12.5001 13.995 12.5001 13.9968 12.5001C13.9986 12.5001 14.0004 12.5001 14.0022 12.5001C14.0039 12.5001 14.0057 12.5001 14.0075 12.5001C14.0093 12.5001 14.0111 12.5001 14.0128 12.5001C14.0146 12.5001 14.0164 12.5001 14.0182 12.5001C14.0199 12.5001 14.0217 12.5001 14.0234 12.5001C14.0252 12.5001 14.027 12.5001 14.0287 12.5001C14.0305 12.5001 14.0322 12.5001 14.0339 12.5001C14.0357 12.5001 14.0374 12.5001 14.0392 12.5001C14.0409 12.5001 14.0426 12.5001 14.0444 12.5001C14.0461 12.5001 14.0478 12.5001 14.0495 12.5001C14.0513 12.5001 14.053 12.5001 14.0547 12.5001C14.0564 12.5001 14.0581 12.5001 14.0598 12.5001C14.0615 12.5001 14.0632 12.5001 14.0649 12.5001C14.0666 12.5001 14.0683 12.5001 14.07 12.5001C14.0717 12.5001 14.0734 12.5001 14.0751 12.5001C14.0768 12.5001 14.0784 12.5001 14.0801 12.5001C14.0818 12.5001 14.0835 12.5001 14.0851 12.5001C14.0868 12.5001 14.0885 12.5001 14.0901 12.5001C14.0918 12.5001 14.0934 12.5001 14.0951 12.5001C14.0967 12.5001 14.0984 12.5001 14.1 12.5001C14.1017 12.5001 14.1033 12.5001 14.105 12.5001C14.1066 12.5001 14.1082 12.5001 14.1099 12.5001C14.1115 12.5001 14.1131 12.5001 14.1148 12.5001C14.1164 12.5001 14.118 12.5001 14.1196 12.5001C14.1212 12.5001 14.1229 12.5001 14.1245 12.5001C14.1261 12.5001 14.1277 12.5001 14.1293 12.5001C14.1309 12.5001 14.1325 12.5001 14.1341 12.5001C14.1357 12.5001 14.1373 12.5001 14.1388 12.5001C14.1404 12.5001 14.142 12.5001 14.1436 12.5001C14.1452 12.5001 14.1467 12.5001 14.1483 12.5001C14.1499 12.5001 14.1515 12.5001 14.153 12.5001C14.1546 12.5001 14.1562 12.5001 14.1577 12.5001C14.1593 12.5001 14.1608 12.5001 14.1624 12.5001C14.1639 12.5001 14.1655 12.5001 14.167 12.5001C14.1686 12.5001 14.1701 12.5001 14.1716 12.5001C14.1732 12.5001 14.1747 12.5001 14.1762 12.5001C14.1778 12.5001 14.1793 12.5001 14.1808 12.5001C14.1823 12.5001 14.1838 12.5001 14.1853 12.5001C14.1869 12.5001 14.1884 12.5001 14.1899 12.5001C14.1914 12.5001 14.1929 12.5001 14.1944 12.5001C14.1959 12.5001 14.1974 12.5001 14.1989 12.5001C14.2004 12.5001 14.2019 12.5001 14.2033 12.5001C14.2048 12.5001 14.2063 12.5001 14.2078 12.5001C14.2093 12.5001 14.2107 12.5001 14.2122 12.5001C14.2137 12.5001 14.2151 12.5001 14.2166 12.5001C14.2181 12.5001 14.2195 12.5001 14.221 12.5001C14.2224 12.5001 14.2239 12.5001 14.2253 12.5001C14.2268 12.5001 14.2282 12.5001 14.2297 12.5001C14.2311 12.5001 14.2325 12.5001 14.234 12.5001C14.2354 12.5001 14.2368 12.5001 14.2383 12.5001V10.5001C14.2368 10.5001 14.2354 10.5001 14.234 10.5001C14.2325 10.5001 14.2311 10.5001 14.2297 10.5001C14.2282 10.5001 14.2268 10.5001 14.2253 10.5001C14.2239 10.5001 14.2224 10.5001 14.221 10.5001C14.2195 10.5001 14.2181 10.5001 14.2166 10.5001C14.2151 10.5001 14.2137 10.5001 14.2122 10.5001C14.2107 10.5001 14.2093 10.5001 14.2078 10.5001C14.2063 10.5001 14.2048 10.5001 14.2033 10.5001C14.2019 10.5001 14.2004 10.5001 14.1989 10.5001C14.1974 10.5001 14.1959 10.5001 14.1944 10.5001C14.1929 10.5001 14.1914 10.5001 14.1899 10.5001C14.1884 10.5001 14.1869 10.5001 14.1853 10.5001C14.1838 10.5001 14.1823 10.5001 14.1808 10.5001C14.1793 10.5001 14.1778 10.5001 14.1762 10.5001C14.1747 10.5001 14.1732 10.5001 14.1716 10.5001C14.1701 10.5001 14.1686 10.5001 14.167 10.5001C14.1655 10.5001 14.1639 10.5001 14.1624 10.5001C14.1608 10.5001 14.1593 10.5001 14.1577 10.5001C14.1562 10.5001 14.1546 10.5001 14.153 10.5001C14.1515 10.5001 14.1499 10.5001 14.1483 10.5001C14.1467 10.5001 14.1452 10.5001 14.1436 10.5001C14.142 10.5001 14.1404 10.5001 14.1388 10.5001C14.1373 10.5001 14.1357 10.5001 14.1341 10.5001C14.1325 10.5001 14.1309 10.5001 14.1293 10.5001C14.1277 10.5001 14.1261 10.5001 14.1245 10.5001C14.1229 10.5001 14.1212 10.5001 14.1196 10.5001C14.118 10.5001 14.1164 10.5001 14.1148 10.5001C14.1131 10.5001 14.1115 10.5001 14.1099 10.5001C14.1082 10.5001 14.1066 10.5001 14.105 10.5001C14.1033 10.5001 14.1017 10.5001 14.1 10.5001C14.0984 10.5001 14.0967 10.5001 14.0951 10.5001C14.0934 10.5001 14.0918 10.5001 14.0901 10.5001C14.0885 10.5001 14.0868 10.5001 14.0851 10.5001C14.0835 10.5001 14.0818 10.5001 14.0801 10.5001C14.0784 10.5001 14.0768 10.5001 14.0751 10.5001C14.0734 10.5001 14.0717 10.5001 14.07 10.5001C14.0683 10.5001 14.0666 10.5001 14.0649 10.5001C14.0632 10.5001 14.0615 10.5001 14.0598 10.5001C14.0581 10.5001 14.0564 10.5001 14.0547 10.5001C14.053 10.5001 14.0513 10.5001 14.0495 10.5001C14.0478 10.5001 14.0461 10.5001 14.0444 10.5001C14.0426 10.5001 14.0409 10.5001 14.0392 10.5001C14.0374 10.5001 14.0357 10.5001 14.0339 10.5001C14.0322 10.5001 14.0305 10.5001 14.0287 10.5001C14.027 10.5001 14.0252 10.5001 14.0234 10.5001C14.0217 10.5001 14.0199 10.5001 14.0182 10.5001C14.0164 10.5001 14.0146 10.5001 14.0128 10.5001C14.0111 10.5001 14.0093 10.5001 14.0075 10.5001C14.0057 10.5001 14.0039 10.5001 14.0022 10.5001C14.0004 10.5001 13.9986 10.5001 13.9968 10.5001C13.995 10.5001 13.9932 10.5001 13.9914 10.5001C13.9896 10.5001 13.9878 10.5001 13.986 10.5001C13.9841 10.5001 13.9823 10.5001 13.9805 10.5001C13.9787 10.5001 13.9769 10.5001 13.975 10.5001C13.9732 10.5001 13.9714 10.5001 13.9696 10.5001C13.9677 10.5001 13.9659 10.5001 13.964 10.5001C13.9622 10.5001 13.9603 10.5001 13.9585 10.5001C13.9567 10.5001 13.9548 10.5001 13.9529 10.5001C13.9511 10.5001 13.9492 10.5001 13.9474 10.5001C13.9455 10.5001 13.9436 10.5001 13.9418 10.5001C13.9399 10.5001 13.938 10.5001 13.9361 10.5001C13.9342 10.5001 13.9324 10.5001 13.9305 10.5001C13.9286 10.5001 13.9267 10.5001 13.9248 10.5001C13.9229 10.5001 13.921 10.5001 13.9191 10.5001C13.9172 10.5001 13.9153 10.5001 13.9134 10.5001C13.9115 10.5001 13.9096 10.5001 13.9076 10.5001C13.9057 10.5001 13.9038 10.5001 13.9019 10.5001C13.8999 10.5001 13.898 10.5001 13.8961 10.5001C13.8941 10.5001 13.8922 10.5001 13.8903 10.5001C13.8883 10.5001 13.8864 10.5001 13.8844 10.5001C13.8825 10.5001 13.8805 10.5001 13.8786 10.5001C13.8766 10.5001 13.8747 10.5001 13.8727 10.5001C13.8707 10.5001 13.8688 10.5001 13.8668 10.5001C13.8648 10.5001 13.8628 10.5001 13.8609 10.5001C13.8589 10.5001 13.8569 10.5001 13.8549 10.5001C13.8529 10.5001 13.8509 10.5001 13.8489 10.5001C13.8469 10.5001 13.8449 10.5001 13.8429 10.5001C13.8409 10.5001 13.8389 10.5001 13.8369 10.5001C13.8349 10.5001 13.8329 10.5001 13.8309 10.5001C13.8289 10.5001 13.8268 10.5001 13.8248 10.5001C13.8228 10.5001 13.8207 10.5001 13.8187 10.5001C13.8167 10.5001 13.8146 10.5001 13.8126 10.5001C13.8106 10.5001 13.8085 10.5001 13.8065 10.5001C13.8044 10.5001 13.8024 10.5001 13.8003 10.5001C13.7982 10.5001 13.7962 10.5001 13.7941 10.5001C13.7921 10.5001 13.79 10.5001 13.7879 10.5001C13.7858 10.5001 13.7838 10.5001 13.7817 10.5001C13.7796 10.5001 13.7775 10.5001 13.7754 10.5001C13.7733 10.5001 13.7712 10.5001 13.7691 10.5001C13.7671 10.5001 13.765 10.5001 13.7628 10.5001C13.7607 10.5001 13.7586 10.5001 13.7565 10.5001C13.7544 10.5001 13.7523 10.5001 13.7502 10.5001C13.7481 10.5001 13.7459 10.5001 13.7438 10.5001C13.7417 10.5001 13.7395 10.5001 13.7374 10.5001C13.7353 10.5001 13.7331 10.5001 13.731 10.5001C13.7288 10.5001 13.7267 10.5001 13.7245 10.5001C13.7224 10.5001 13.7202 10.5001 13.7181 10.5001C13.7159 10.5001 13.7138 10.5001 13.7116 10.5001C13.7094 10.5001 13.7073 10.5001 13.7051 10.5001C13.7029 10.5001 13.7007 10.5001 13.6985 10.5001C13.6964 10.5001 13.6942 10.5001 13.692 10.5001C13.6898 10.5001 13.6876 10.5001 13.6854 10.5001C13.6832 10.5001 13.681 10.5001 13.6788 10.5001C13.6766 10.5001 13.6744 10.5001 13.6722 10.5001C13.6699 10.5001 13.6677 10.5001 13.6655 10.5001C13.6633 10.5001 13.6611 10.5001 13.6588 10.5001C13.6566 10.5001 13.6544 10.5001 13.6521 10.5001C13.6499 10.5001 13.6476 10.5001 13.6454 10.5001C13.6431 10.5001 13.6409 10.5001 13.6386 10.5001C13.6364 10.5001 13.6341 10.5001 13.6319 10.5001C13.6296 10.5001 13.6273 10.5001 13.6251 10.5001C13.6228 10.5001 13.6205 10.5001 13.6182 10.5001C13.616 10.5001 13.6137 10.5001 13.6114 10.5001C13.6091 10.5001 13.6068 10.5001 13.6045 10.5001C13.6022 10.5001 13.5999 10.5001 13.5976 10.5001C13.5953 10.5001 13.593 10.5001 13.5907 10.5001C13.5884 10.5001 13.5861 10.5001 13.5838 10.5001C13.5815 10.5001 13.5791 10.5001 13.5768 10.5001C13.5745 10.5001 13.5722 10.5001 13.5698 10.5001C13.5675 10.5001 13.5651 10.5001 13.5628 10.5001C13.5605 10.5001 13.5581 10.5001 13.5558 10.5001C13.5534 10.5001 13.5511 10.5001 13.5487 10.5001C13.5463 10.5001 13.544 10.5001 13.5416 10.5001C13.5393 10.5001 13.5369 10.5001 13.5345 10.5001C13.5321 10.5001 13.5298 10.5001 13.5274 10.5001C13.525 10.5001 13.5226 10.5001 13.5202 10.5001C13.5178 10.5001 13.5154 10.5001 13.513 10.5001C13.5106 10.5001 13.5082 10.5001 13.5058 10.5001C13.5034 10.5001 13.501 10.5001 13.4986 10.5001C13.4962 10.5001 13.4938 10.5001 13.4913 10.5001C13.4889 10.5001 13.4865 10.5001 13.4841 10.5001C13.4816 10.5001 13.4792 10.5001 13.4768 10.5001C13.4743 10.5001 13.4719 10.5001 13.4694 10.5001C13.467 10.5001 13.4645 10.5001 13.4621 10.5001C13.4596 10.5001 13.4572 10.5001 13.4547 10.5001C13.4522 10.5001 13.4498 10.5001 13.4473 10.5001C13.4448 10.5001 13.4423 10.5001 13.4399 10.5001C13.4374 10.5001 13.4349 10.5001 13.4324 10.5001C13.4299 10.5001 13.4274 10.5001 13.4249 10.5001C13.4224 10.5001 13.4199 10.5001 13.4174 10.5001C13.4149 10.5001 13.4124 10.5001 13.4099 10.5001C13.4074 10.5001 13.4049 10.5001 13.4024 10.5001C13.3998 10.5001 13.3973 10.5001 13.3948 10.5001C13.3923 10.5001 13.3897 10.5001 13.3872 10.5001C13.3847 10.5001 13.3821 10.5001 13.3796 10.5001C13.377 10.5001 13.3745 10.5001 13.3719 10.5001C13.3694 10.5001 13.3668 10.5001 13.3643 10.5001C13.3617 10.5001 13.3591 10.5001 13.3566 10.5001C13.354 10.5001 13.3514 10.5001 13.3488 10.5001C13.3463 10.5001 13.3437 10.5001 13.3411 10.5001C13.3385 10.5001 13.3359 10.5001 13.3333 10.5001C13.3307 10.5001 13.3281 10.5001 13.3255 10.5001C13.3229 10.5001 13.3203 10.5001 13.3177 10.5001C13.3151 10.5001 13.3125 10.5001 13.3099 10.5001C13.3073 10.5001 13.3046 10.5001 13.302 10.5001C13.2994 10.5001 13.2967 10.5001 13.2941 10.5001C13.2915 10.5001 13.2888 10.5001 13.2862 10.5001C13.2835 10.5001 13.2809 10.5001 13.2782 10.5001C13.2756 10.5001 13.2729 10.5001 13.2703 10.5001C13.2676 10.5001 13.265 10.5001 13.2623 10.5001C13.2596 10.5001 13.2569 10.5001 13.2543 10.5001C13.2516 10.5001 13.2489 10.5001 13.2462 10.5001C13.2435 10.5001 13.2409 10.5001 13.2382 10.5001C13.2355 10.5001 13.2328 10.5001 13.2301 10.5001C13.2274 10.5001 13.2247 10.5001 13.222 10.5001C13.2192 10.5001 13.2165 10.5001 13.2138 10.5001C13.2111 10.5001 13.2084 10.5001 13.2056 10.5001C13.2029 10.5001 13.2002 10.5001 13.1975 10.5001C13.1947 10.5001 13.192 10.5001 13.1892 10.5001C13.1865 10.5001 13.1837 10.5001 13.181 10.5001C13.1782 10.5001 13.1755 10.5001 13.1727 10.5001C13.17 10.5001 13.1672 10.5001 13.1644 10.5001C13.1617 10.5001 13.1589 10.5001 13.1561 10.5001C13.1533 10.5001 13.1506 10.5001 13.1478 10.5001C13.145 10.5001 13.1422 10.5001 13.1394 10.5001C13.1366 10.5001 13.1338 10.5001 13.131 10.5001C13.1282 10.5001 13.1254 10.5001 13.1226 10.5001C13.1198 10.5001 13.117 10.5001 13.1142 10.5001C13.1113 10.5001 13.1085 10.5001 13.1057 10.5001C13.1029 10.5001 13.1 10.5001 13.0972 10.5001C13.0944 10.5001 13.0915 10.5001 13.0887 10.5001C13.0858 10.5001 13.083 10.5001 13.0801 10.5001C13.0773 10.5001 13.0744 10.5001 13.0716 10.5001C13.0687 10.5001 13.0658 10.5001 13.063 10.5001C13.0601 10.5001 13.0572 10.5001 13.0543 10.5001C13.0515 10.5001 13.0486 10.5001 13.0457 10.5001C13.0428 10.5001 13.0399 10.5001 13.037 10.5001C13.0341 10.5001 13.0312 10.5001 13.0283 10.5001C13.0254 10.5001 13.0225 10.5001 13.0196 10.5001C13.0167 10.5001 13.0138 10.5001 13.0109 10.5001C13.0079 10.5001 13.005 10.5001 13.0021 10.5001C12.9992 10.5001 12.9962 10.5001 12.9933 10.5001C12.9904 10.5001 12.9874 10.5001 12.9845 10.5001C12.9815 10.5001 12.9786 10.5001 12.9756 10.5001C12.9727 10.5001 12.9697 10.5001 12.9667 10.5001C12.9638 10.5001 12.9608 10.5001 12.9578 10.5001C12.9549 10.5001 12.9519 10.5001 12.9489 10.5001C12.9459 10.5001 12.943 10.5001 12.94 10.5001C12.937 10.5001 12.934 10.5001 12.931 10.5001C12.928 10.5001 12.925 10.5001 12.922 10.5001C12.919 10.5001 12.916 10.5001 12.913 10.5001C12.91 10.5001 12.9069 10.5001 12.9039 10.5001C12.9009 10.5001 12.8979 10.5001 12.8948 10.5001C12.8918 10.5001 12.8888 10.5001 12.8857 10.5001C12.8827 10.5001 12.8796 10.5001 12.8766 10.5001C12.8736 10.5001 12.8705 10.5001 12.8674 10.5001C12.8644 10.5001 12.8613 10.5001 12.8583 10.5001C12.8552 10.5001 12.8521 10.5001 12.8491 10.5001C12.846 10.5001 12.8429 10.5001 12.8398 10.5001C12.8367 10.5001 12.8336 10.5001 12.8306 10.5001C12.8275 10.5001 12.8244 10.5001 12.8213 10.5001C12.8182 10.5001 12.8151 10.5001 12.812 10.5001C12.8089 10.5001 12.8057 10.5001 12.8026 10.5001C12.7995 10.5001 12.7964 10.5001 12.7933 10.5001C12.7901 10.5001 12.787 10.5001 12.7839 10.5001C12.7807 10.5001 12.7776 10.5001 12.7745 10.5001C12.7713 10.5001 12.7682 10.5001 12.765 10.5001C12.7619 10.5001 12.7587 10.5001 12.7556 10.5001C12.7524 10.5001 12.7492 10.5001 12.7461 10.5001C12.7429 10.5001 12.7397 10.5001 12.7365 10.5001C12.7334 10.5001 12.7302 10.5001 12.727 10.5001C12.7238 10.5001 12.7206 10.5001 12.7174 10.5001C12.7142 10.5001 12.711 10.5001 12.7078 10.5001C12.7046 10.5001 12.7014 10.5001 12.6982 10.5001C12.695 10.5001 12.6918 10.5001 12.6886 10.5001C12.6853 10.5001 12.6821 10.5001 12.6789 10.5001C12.6757 10.5001 12.6724 10.5001 12.6692 10.5001C12.6659 10.5001 12.6627 10.5001 12.6595 10.5001C12.6562 10.5001 12.653 10.5001 12.6497 10.5001C12.6464 10.5001 12.6432 10.5001 12.6399 10.5001C12.6367 10.5001 12.6334 10.5001 12.6301 10.5001C12.6268 10.5001 12.6236 10.5001 12.6203 10.5001C12.617 10.5001 12.6137 10.5001 12.6104 10.5001C12.6071 10.5001 12.6038 10.5001 12.6005 10.5001C12.5972 10.5001 12.5939 10.5001 12.5906 10.5001C12.5873 10.5001 12.584 10.5001 12.5807 10.5001C12.5774 10.5001 12.574 10.5001 12.5707 10.5001C12.5674 10.5001 12.5641 10.5001 12.5607 10.5001C12.5574 10.5001 12.5541 10.5001 12.5507 10.5001C12.5474 10.5001 12.544 10.5001 12.5407 10.5001C12.5373 10.5001 12.534 10.5001 12.5306 10.5001C12.5272 10.5001 12.5239 10.5001 12.5205 10.5001C12.5171 10.5001 12.5138 10.5001 12.5104 10.5001C12.507 10.5001 12.5036 10.5001 12.5002 10.5001C12.4968 10.5001 12.4935 10.5001 12.4901 10.5001C12.4867 10.5001 12.4833 10.5001 12.4799 10.5001C12.4765 10.5001 12.473 10.5001 12.4696 10.5001C12.4662 10.5001 12.4628 10.5001 12.4594 10.5001C12.456 10.5001 12.4525 10.5001 12.4491 10.5001C12.4457 10.5001 12.4422 10.5001 12.4388 10.5001C12.4353 10.5001 12.4319 10.5001 12.4285 10.5001C12.425 10.5001 12.4215 10.5001 12.4181 10.5001C12.4146 10.5001 12.4112 10.5001 12.4077 10.5001C12.4042 10.5001 12.4008 10.5001 12.3973 10.5001C12.3938 10.5001 12.3903 10.5001 12.3868 10.5001C12.3834 10.5001 12.3799 10.5001 12.3764 10.5001C12.3729 10.5001 12.3694 10.5001 12.3659 10.5001C12.3624 10.5001 12.3589 10.5001 12.3554 10.5001C12.3518 10.5001 12.3483 10.5001 12.3448 10.5001C12.3413 10.5001 12.3378 10.5001 12.3342 10.5001C12.3307 10.5001 12.3272 10.5001 12.3236 10.5001C12.3201 10.5001 12.3166 10.5001 12.313 10.5001C12.3095 10.5001 12.3059 10.5001 12.3023 10.5001C12.2988 10.5001 12.2952 10.5001 12.2917 10.5001C12.2881 10.5001 12.2845 10.5001 12.281 10.5001C12.2774 10.5001 12.2738 10.5001 12.2702 10.5001C12.2666 10.5001 12.263 10.5001 12.2595 10.5001C12.2559 10.5001 12.2523 10.5001 12.2487 10.5001C12.2451 10.5001 12.2415 10.5001 12.2378 10.5001C12.2342 10.5001 12.2306 10.5001 12.227 10.5001C12.2234 10.5001 12.2198 10.5001 12.2161 10.5001C12.2125 10.5001 12.2089 10.5001 12.2052 10.5001C12.2016 10.5001 12.198 10.5001 12.1943 10.5001C12.1907 10.5001 12.187 10.5001 12.1834 10.5001C12.1797 10.5001 12.176 10.5001 12.1724 10.5001C12.1687 10.5001 12.165 10.5001 12.1614 10.5001C12.1577 10.5001 12.154 10.5001 12.1503 10.5001C12.1467 10.5001 12.143 10.5001 12.1393 10.5001C12.1356 10.5001 12.1319 10.5001 12.1282 10.5001C12.1245 10.5001 12.1208 10.5001 12.1171 10.5001C12.1134 10.5001 12.1096 10.5001 12.1059 10.5001C12.1022 10.5001 12.0985 10.5001 12.0948 10.5001C12.091 10.5001 12.0873 10.5001 12.0836 10.5001C12.0798 10.5001 12.0761 10.5001 12.0723 10.5001C12.0686 10.5001 12.0648 10.5001 12.0611 10.5001C12.0573 10.5001 12.0536 10.5001 12.0498 10.5001C12.046 10.5001 12.0423 10.5001 12.0385 10.5001C12.0347 10.5001 12.0309 10.5001 12.0272 10.5001C12.0234 10.5001 12.0196 10.5001 12.0158 10.5001C12.012 10.5001 12.0082 10.5001 12.0044 10.5001C12.0006 10.5001 11.9968 10.5001 11.993 10.5001C11.9892 10.5001 11.9854 10.5001 11.9816 10.5001C11.9777 10.5001 11.9739 10.5001 11.9701 10.5001C11.9663 10.5001 11.9624 10.5001 11.9586 10.5001C11.9548 10.5001 11.9509 10.5001 11.9471 10.5001C11.9432 10.5001 11.9394 10.5001 11.9355 10.5001C11.9317 10.5001 11.9278 10.5001 11.9239 10.5001C11.9201 10.5001 11.9162 10.5001 11.9123 10.5001C11.9084 10.5001 11.9046 10.5001 11.9007 10.5001C11.8968 10.5001 11.8929 10.5001 11.889 10.5001C11.8851 10.5001 11.8812 10.5001 11.8773 10.5001C11.8734 10.5001 11.8695 10.5001 11.8656 10.5001C11.8617 10.5001 11.8578 10.5001 11.8539 10.5001C11.8499 10.5001 11.846 10.5001 11.8421 10.5001C11.8382 10.5001 11.8342 10.5001 11.8303 10.5001C11.8264 10.5001 11.8224 10.5001 11.8185 10.5001C11.8145 10.5001 11.8106 10.5001 11.8066 10.5001C11.8026 10.5001 11.7987 10.5001 11.7947 10.5001C11.7908 10.5001 11.7868 10.5001 11.7828 10.5001C11.7788 10.5001 11.7749 10.5001 11.7709 10.5001C11.7669 10.5001 11.7629 10.5001 11.7589 10.5001C11.7549 10.5001 11.7509 10.5001 11.7469 10.5001C11.7429 10.5001 11.7389 10.5001 11.7349 10.5001C11.7309 10.5001 11.7269 10.5001 11.7228 10.5001C11.7188 10.5001 11.7148 10.5001 11.7107 10.5001C11.7067 10.5001 11.7027 10.5001 11.6986 10.5001C11.6946 10.5001 11.6906 10.5001 11.6865 10.5001C11.6825 10.5001 11.6784 10.5001 11.6743 10.5001C11.6703 10.5001 11.6662 10.5001 11.6622 10.5001C11.6581 10.5001 11.654 10.5001 11.6499 10.5001C11.6459 10.5001 11.6418 10.5001 11.6377 10.5001C11.6336 10.5001 11.6295 10.5001 11.6254 10.5001C11.6213 10.5001 11.6172 10.5001 11.6131 10.5001C11.609 10.5001 11.6049 10.5001 11.6008 10.5001C11.5967 10.5001 11.5925 10.5001 11.5884 10.5001C11.5843 10.5001 11.5802 10.5001 11.576 10.5001C11.5719 10.5001 11.5678 10.5001 11.5636 10.5001C11.5595 10.5001 11.5553 10.5001 11.5512 10.5001C11.547 10.5001 11.5429 10.5001 11.5387 10.5001C11.5345 10.5001 11.5304 10.5001 11.5262 10.5001C11.522 10.5001 11.5179 10.5001 11.5137 10.5001C11.5095 10.5001 11.5053 10.5001 11.5011 10.5001C11.4969 10.5001 11.4927 10.5001 11.4885 10.5001C11.4843 10.5001 11.4801 10.5001 11.4759 10.5001C11.4717 10.5001 11.4675 10.5001 11.4633 10.5001C11.4591 10.5001 11.4548 10.5001 11.4506 10.5001C11.4464 10.5001 11.4421 10.5001 11.4379 10.5001C11.4337 10.5001 11.4294 10.5001 11.4252 10.5001C11.4209 10.5001 11.4167 10.5001 11.4124 10.5001C11.4082 10.5001 11.4039 10.5001 11.3996 10.5001C11.3954 10.5001 11.3911 10.5001 11.3868 10.5001C11.3826 10.5001 11.3783 10.5001 11.374 10.5001C11.3697 10.5001 11.3654 10.5001 11.3611 10.5001C11.3568 10.5001 11.3525 10.5001 11.3482 10.5001C11.3439 10.5001 11.3396 10.5001 11.3353 10.5001C11.331 10.5001 11.3267 10.5001 11.3224 10.5001C11.318 10.5001 11.3137 10.5001 11.3094 10.5001C11.305 10.5001 11.3007 10.5001 11.2964 10.5001C11.292 10.5001 11.2877 10.5001 11.2833 10.5001C11.279 10.5001 11.2746 10.5001 11.2703 10.5001C11.2659 10.5001 11.2615 10.5001 11.2572 10.5001C11.2528 10.5001 11.2484 10.5001 11.244 10.5001C11.2397 10.5001 11.2353 10.5001 11.2309 10.5001C11.2265 10.5001 11.2221 10.5001 11.2177 10.5001C11.2133 10.5001 11.2089 10.5001 11.2045 10.5001C11.2001 10.5001 11.1957 10.5001 11.1913 10.5001C11.1868 10.5001 11.1824 10.5001 11.178 10.5001C11.1736 10.5001 11.1691 10.5001 11.1647 10.5001C11.1602 10.5001 11.1558 10.5001 11.1514 10.5001C11.1469 10.5001 11.1425 10.5001 11.138 10.5001C11.1336 10.5001 11.1291 10.5001 11.1246 10.5001C11.1202 10.5001 11.1157 10.5001 11.1112 10.5001C11.1067 10.5001 11.1023 10.5001 11.0978 10.5001C11.0933 10.5001 11.0888 10.5001 11.0843 10.5001C11.0798 10.5001 11.0753 10.5001 11.0708 10.5001C11.0663 10.5001 11.0618 10.5001 11.0573 10.5001C11.0528 10.5001 11.0482 10.5001 11.0437 10.5001C11.0392 10.5001 11.0347 10.5001 11.0301 10.5001C11.0256 10.5001 11.0211 10.5001 11.0165 10.5001C11.012 10.5001 11.0074 10.5001 11.0029 10.5001C10.9983 10.5001 10.9938 10.5001 10.9892 10.5001C10.9846 10.5001 10.9801 10.5001 10.9755 10.5001C10.9709 10.5001 10.9664 10.5001 10.9618 10.5001C10.9572 10.5001 10.9526 10.5001 10.948 10.5001C10.9434 10.5001 10.9388 10.5001 10.9342 10.5001C10.9296 10.5001 10.925 10.5001 10.9204 10.5001C10.9158 10.5001 10.9112 10.5001 10.9066 10.5001C10.9019 10.5001 10.8973 10.5001 10.8927 10.5001C10.8881 10.5001 10.8834 10.5001 10.8788 10.5001C10.8742 10.5001 10.8695 10.5001 10.8649 10.5001C10.8602 10.5001 10.8556 10.5001 10.8509 10.5001C10.8462 10.5001 10.8416 10.5001 10.8369 10.5001C10.8322 10.5001 10.8276 10.5001 10.8229 10.5001C10.8182 10.5001 10.8135 10.5001 10.8088 10.5001C10.8041 10.5001 10.7995 10.5001 10.7948 10.5001C10.7901 10.5001 10.7854 10.5001 10.7806 10.5001C10.7759 10.5001 10.7712 10.5001 10.7665 10.5001C10.7618 10.5001 10.7571 10.5001 10.7523 10.5001C10.7476 10.5001 10.7429 10.5001 10.7381 10.5001C10.7334 10.5001 10.7287 10.5001 10.7239 10.5001C10.7192 10.5001 10.7144 10.5001 10.7097 10.5001C10.7049 10.5001 10.7001 10.5001 10.6954 10.5001C10.6906 10.5001 10.6858 10.5001 10.6811 10.5001C10.6763 10.5001 10.6715 10.5001 10.6667 10.5001C10.6619 10.5001 10.6571 10.5001 10.6523 10.5001C10.6476 10.5001 10.6427 10.5001 10.6379 10.5001C10.6331 10.5001 10.6283 10.5001 10.6235 10.5001C10.6187 10.5001 10.6139 10.5001 10.6091 10.5001C10.6042 10.5001 10.5994 10.5001 10.5946 10.5001C10.5897 10.5001 10.5849 10.5001 10.58 10.5001C10.5752 10.5001 10.5703 10.5001 10.5655 10.5001C10.5606 10.5001 10.5558 10.5001 10.5509 10.5001C10.546 10.5001 10.5412 10.5001 10.5363 10.5001C10.5314 10.5001 10.5265 10.5001 10.5217 10.5001C10.5168 10.5001 10.5119 10.5001 10.507 10.5001C10.5021 10.5001 10.4972 10.5001 10.4923 10.5001C10.4874 10.5001 10.4825 10.5001 10.4776 10.5001C10.4727 10.5001 10.4677 10.5001 10.4628 10.5001C10.4579 10.5001 10.453 10.5001 10.448 10.5001C10.4431 10.5001 10.4381 10.5001 10.4332 10.5001C10.4283 10.5001 10.4233 10.5001 10.4184 10.5001C10.4134 10.5001 10.4084 10.5001 10.4035 10.5001C10.3985 10.5001 10.3936 10.5001 10.3886 10.5001C10.3836 10.5001 10.3786 10.5001 10.3736 10.5001C10.3687 10.5001 10.3637 10.5001 10.3587 10.5001C10.3537 10.5001 10.3487 10.5001 10.3437 10.5001C10.3387 10.5001 10.3337 10.5001 10.3287 10.5001C10.3236 10.5001 10.3186 10.5001 10.3136 10.5001C10.3086 10.5001 10.3035 10.5001 10.2985 10.5001C10.2935 10.5001 10.2884 10.5001 10.2834 10.5001C10.2784 10.5001 10.2733 10.5001 10.2683 10.5001C10.2632 10.5001 10.2581 10.5001 10.2531 10.5001C10.248 10.5001 10.2429 10.5001 10.2379 10.5001C10.2328 10.5001 10.2277 10.5001 10.2226 10.5001C10.2176 10.5001 10.2125 10.5001 10.2074 10.5001C10.2023 10.5001 10.1972 10.5001 10.1921 10.5001C10.187 10.5001 10.1819 10.5001 10.1768 10.5001C10.1716 10.5001 10.1665 10.5001 10.1614 10.5001C10.1563 10.5001 10.1511 10.5001 10.146 10.5001C10.1409 10.5001 10.1357 10.5001 10.1306 10.5001C10.1255 10.5001 10.1203 10.5001 10.1151 10.5001C10.11 10.5001 10.1048 10.5001 10.0997 10.5001C10.0945 10.5001 10.0893 10.5001 10.0842 10.5001C10.079 10.5001 10.0738 10.5001 10.0686 10.5001C10.0634 10.5001 10.0583 10.5001 10.0531 10.5001C10.0479 10.5001 10.0427 10.5001 10.0375 10.5001C10.0323 10.5001 10.0271 10.5001 10.0218 10.5001C10.0166 10.5001 10.0114 10.5001 10.0062 10.5001C10.001 10.5001 9.99573 10.5001 9.99049 10.5001C9.98526 10.5001 9.98002 10.5001 9.97478 10.5001C9.96953 10.5001 9.96428 10.5001 9.95903 10.5001C9.95377 10.5001 9.94851 10.5001 9.94325 10.5001C9.93798 10.5001 9.93271 10.5001 9.92744 10.5001C9.92216 10.5001 9.91688 10.5001 9.9116 10.5001C9.90631 10.5001 9.90102 10.5001 9.89573 10.5001C9.89043 10.5001 9.88513 10.5001 9.87983 10.5001C9.87452 10.5001 9.86921 10.5001 9.8639 10.5001C9.85858 10.5001 9.85326 10.5001 9.84794 10.5001C9.84261 10.5001 9.83728 10.5001 9.83194 10.5001C9.82661 10.5001 9.82127 10.5001 9.81592 10.5001C9.81058 10.5001 9.80523 10.5001 9.79987 10.5001C9.79451 10.5001 9.78915 10.5001 9.78379 10.5001C9.77842 10.5001 9.77305 10.5001 9.76767 10.5001C9.7623 10.5001 9.75691 10.5001 9.75153 10.5001C9.74614 10.5001 9.74075 10.5001 9.73535 10.5001C9.72995 10.5001 9.72455 10.5001 9.71915 10.5001C9.71374 10.5001 9.70833 10.5001 9.70291 10.5001C9.69749 10.5001 9.69207 10.5001 9.68664 10.5001C9.68121 10.5001 9.67578 10.5001 9.67034 10.5001C9.66491 10.5001 9.65946 10.5001 9.65402 10.5001C9.64857 10.5001 9.64311 10.5001 9.63766 10.5001C9.6322 10.5001 9.62673 10.5001 9.62127 10.5001C9.6158 10.5001 9.61032 10.5001 9.60484 10.5001C9.59937 10.5001 9.59388 10.5001 9.58839 10.5001C9.5829 10.5001 9.57741 10.5001 9.57191 10.5001C9.56641 10.5001 9.56091 10.5001 9.5554 10.5001C9.54989 10.5001 9.54437 10.5001 9.53885 10.5001C9.53333 10.5001 9.52781 10.5001 9.52228 10.5001C9.51675 10.5001 9.51121 10.5001 9.50567 10.5001C9.50013 10.5001 9.49459 10.5001 9.48904 10.5001C9.48348 10.5001 9.47793 10.5001 9.47237 10.5001C9.46681 10.5001 9.46124 10.5001 9.45567 10.5001C9.4501 10.5001 9.44452 10.5001 9.43894 10.5001C9.43336 10.5001 9.42777 10.5001 9.42218 10.5001C9.41659 10.5001 9.41099 10.5001 9.40539 10.5001C9.39978 10.5001 9.39418 10.5001 9.38856 10.5001C9.38295 10.5001 9.37733 10.5001 9.37171 10.5001C9.36609 10.5001 9.36046 10.5001 9.35482 10.5001C9.34919 10.5001 9.34355 10.5001 9.33791 10.5001C9.33226 10.5001 9.32662 10.5001 9.32096 10.5001C9.31531 10.5001 9.30965 10.5001 9.30398 10.5001C9.29832 10.5001 9.29265 10.5001 9.28697 10.5001C9.2813 10.5001 9.27562 10.5001 9.26993 10.5001C9.26425 10.5001 9.25856 10.5001 9.25286 10.5001C9.24717 10.5001 9.24146 10.5001 9.23576 10.5001C9.23005 10.5001 9.22434 10.5001 9.21862 10.5001C9.21291 10.5001 9.20719 10.5001 9.20146 10.5001C9.19573 10.5001 9.19 10.5001 9.18426 10.5001C9.17853 10.5001 9.17278 10.5001 9.16703 10.5001C9.16129 10.5001 9.15553 10.5001 9.14978 10.5001C9.14402 10.5001 9.13825 10.5001 9.13248 10.5001C9.12672 10.5001 9.12094 10.5001 9.11516 10.5001C9.10938 10.5001 9.1036 10.5001 9.09781 10.5001C9.09202 10.5001 9.08623 10.5001 9.08043 10.5001C9.07462 10.5001 9.06882 10.5001 9.06301 10.5001C9.0572 10.5001 9.05138 10.5001 9.04556 10.5001C9.03974 10.5001 9.03391 10.5001 9.02808 10.5001C9.02225 10.5001 9.01641 10.5001 9.01057 10.5001C9.00473 10.5001 8.99888 10.5001 8.99303 10.5001C8.98718 10.5001 8.98132 10.5001 8.97546 10.5001C8.96959 10.5001 8.96373 10.5001 8.95785 10.5001C8.95198 10.5001 8.9461 10.5001 8.94022 10.5001C8.93433 10.5001 8.92844 10.5001 8.92255 10.5001C8.91665 10.5001 8.91075 10.5001 8.90485 10.5001C8.89894 10.5001 8.89303 10.5001 8.88712 10.5001C8.8812 10.5001 8.87528 10.5001 8.86935 10.5001C8.86343 10.5001 8.8575 10.5001 8.85156 10.5001C8.84562 10.5001 8.83968 10.5001 8.83373 10.5001C8.82779 10.5001 8.82183 10.5001 8.81588 10.5001C8.80992 10.5001 8.80396 10.5001 8.79799 10.5001C8.79202 10.5001 8.78604 10.5001 8.78007 10.5001C8.77409 10.5001 8.7681 10.5001 8.76211 10.5001V12.5001ZM14.2383 12.5001C14.3804 12.5001 14.5349 12.5631 14.687 12.7435C14.8467 12.933 14.9596 13.2087 14.9795 13.488C14.9993 13.7649 14.925 13.962 14.8243 14.0775C14.7391 14.1753 14.5328 14.3334 14.0193 14.3334V16.3334C14.9843 16.3334 15.7911 16.0123 16.3322 15.3914C16.8579 14.7882 17.0231 14.0269 16.9744 13.3455C16.9259 12.6665 16.6623 11.9838 16.2162 11.4546C15.7625 10.9163 15.0818 10.5001 14.2383 10.5001V12.5001ZM14.0193 14.3334C14.0125 14.3334 14.0056 14.3334 13.9988 14.3334C13.992 14.3334 13.9851 14.3334 13.9783 14.3334C13.9715 14.3334 13.9646 14.3334 13.9578 14.3334C13.951 14.3334 13.9442 14.3334 13.9374 14.3334C13.9305 14.3334 13.9237 14.3334 13.9169 14.3334C13.9101 14.3334 13.9033 14.3334 13.8965 14.3334C13.8897 14.3334 13.8829 14.3334 13.8761 14.3334C13.8694 14.3334 13.8626 14.3334 13.8558 14.3334C13.849 14.3334 13.8422 14.3334 13.8354 14.3334C13.8287 14.3334 13.8219 14.3334 13.8151 14.3334C13.8084 14.3334 13.8016 14.3334 13.7948 14.3334C13.7881 14.3334 13.7813 14.3334 13.7746 14.3334C13.7678 14.3334 13.7611 14.3334 13.7543 14.3334C13.7476 14.3334 13.7409 14.3334 13.7341 14.3334C13.7274 14.3334 13.7207 14.3334 13.7139 14.3334C13.7072 14.3334 13.7005 14.3334 13.6938 14.3334C13.687 14.3334 13.6803 14.3334 13.6736 14.3334C13.6669 14.3334 13.6602 14.3334 13.6535 14.3334C13.6468 14.3334 13.6401 14.3334 13.6334 14.3334C13.6267 14.3334 13.62 14.3334 13.6133 14.3334C13.6066 14.3334 13.6 14.3334 13.5933 14.3334C13.5866 14.3334 13.5799 14.3334 13.5732 14.3334C13.5666 14.3334 13.5599 14.3334 13.5532 14.3334C13.5466 14.3334 13.5399 14.3334 13.5333 14.3334C13.5266 14.3334 13.52 14.3334 13.5133 14.3334C13.5067 14.3334 13.5 14.3334 13.4934 14.3334C13.4867 14.3334 13.4801 14.3334 13.4735 14.3334C13.4668 14.3334 13.4602 14.3334 13.4536 14.3334C13.447 14.3334 13.4403 14.3334 13.4337 14.3334C13.4271 14.3334 13.4205 14.3334 13.4139 14.3334C13.4073 14.3334 13.4007 14.3334 13.3941 14.3334C13.3875 14.3334 13.3809 14.3334 13.3743 14.3334C13.3677 14.3334 13.3611 14.3334 13.3545 14.3334C13.348 14.3334 13.3414 14.3334 13.3348 14.3334C13.3282 14.3334 13.3217 14.3334 13.3151 14.3334C13.3085 14.3334 13.302 14.3334 13.2954 14.3334C13.2888 14.3334 13.2823 14.3334 13.2757 14.3334C13.2692 14.3334 13.2626 14.3334 13.2561 14.3334C13.2495 14.3334 13.243 14.3334 13.2365 14.3334C13.2299 14.3334 13.2234 14.3334 13.2169 14.3334C13.2104 14.3334 13.2038 14.3334 13.1973 14.3334C13.1908 14.3334 13.1843 14.3334 13.1778 14.3334C13.1713 14.3334 13.1648 14.3334 13.1583 14.3334C13.1518 14.3334 13.1453 14.3334 13.1388 14.3334C13.1323 14.3334 13.1258 14.3334 13.1193 14.3334C13.1128 14.3334 13.1063 14.3334 13.0998 14.3334C13.0934 14.3334 13.0869 14.3334 13.0804 14.3334C13.074 14.3334 13.0675 14.3334 13.061 14.3334C13.0546 14.3334 13.0481 14.3334 13.0417 14.3334C13.0352 14.3334 13.0288 14.3334 13.0223 14.3334C13.0159 14.3334 13.0094 14.3334 13.003 14.3334C12.9965 14.3334 12.9901 14.3334 12.9837 14.3334C12.9773 14.3334 12.9708 14.3334 12.9644 14.3334C12.958 14.3334 12.9516 14.3334 12.9452 14.3334C12.9388 14.3334 12.9323 14.3334 12.9259 14.3334C12.9195 14.3334 12.9131 14.3334 12.9067 14.3334C12.9003 14.3334 12.894 14.3334 12.8876 14.3334C12.8812 14.3334 12.8748 14.3334 12.8684 14.3334C12.862 14.3334 12.8557 14.3334 12.8493 14.3334C12.8429 14.3334 12.8366 14.3334 12.8302 14.3334C12.8238 14.3334 12.8175 14.3334 12.8111 14.3334C12.8048 14.3334 12.7984 14.3334 12.7921 14.3334C12.7857 14.3334 12.7794 14.3334 12.773 14.3334C12.7667 14.3334 12.7604 14.3334 12.754 14.3334C12.7477 14.3334 12.7414 14.3334 12.7351 14.3334C12.7287 14.3334 12.7224 14.3334 12.7161 14.3334C12.7098 14.3334 12.7035 14.3334 12.6972 14.3334C12.6909 14.3334 12.6846 14.3334 12.6783 14.3334C12.672 14.3334 12.6657 14.3334 12.6594 14.3334C12.6531 14.3334 12.6468 14.3334 12.6406 14.3334C12.6343 14.3334 12.628 14.3334 12.6217 14.3334C12.6155 14.3334 12.6092 14.3334 12.6029 14.3334C12.5967 14.3334 12.5904 14.3334 12.5842 14.3334C12.5779 14.3334 12.5717 14.3334 12.5654 14.3334C12.5592 14.3334 12.5529 14.3334 12.5467 14.3334C12.5404 14.3334 12.5342 14.3334 12.528 14.3334C12.5218 14.3334 12.5155 14.3334 12.5093 14.3334C12.5031 14.3334 12.4969 14.3334 12.4907 14.3334C12.4845 14.3334 12.4782 14.3334 12.472 14.3334C12.4658 14.3334 12.4596 14.3334 12.4534 14.3334C12.4472 14.3334 12.4411 14.3334 12.4349 14.3334C12.4287 14.3334 12.4225 14.3334 12.4163 14.3334C12.4101 14.3334 12.404 14.3334 12.3978 14.3334C12.3916 14.3334 12.3855 14.3334 12.3793 14.3334C12.3731 14.3334 12.367 14.3334 12.3608 14.3334C12.3547 14.3334 12.3485 14.3334 12.3424 14.3334C12.3362 14.3334 12.3301 14.3334 12.324 14.3334C12.3178 14.3334 12.3117 14.3334 12.3056 14.3334C12.2994 14.3334 12.2933 14.3334 12.2872 14.3334C12.2811 14.3334 12.275 14.3334 12.2689 14.3334C12.2627 14.3334 12.2566 14.3334 12.2505 14.3334C12.2444 14.3334 12.2383 14.3334 12.2322 14.3334C12.2262 14.3334 12.2201 14.3334 12.214 14.3334C12.2079 14.3334 12.2018 14.3334 12.1957 14.3334C12.1897 14.3334 12.1836 14.3334 12.1775 14.3334C12.1715 14.3334 12.1654 14.3334 12.1593 14.3334C12.1533 14.3334 12.1472 14.3334 12.1412 14.3334C12.1351 14.3334 12.1291 14.3334 12.123 14.3334C12.117 14.3334 12.111 14.3334 12.1049 14.3334C12.0989 14.3334 12.0929 14.3334 12.0868 14.3334C12.0808 14.3334 12.0748 14.3334 12.0688 14.3334C12.0628 14.3334 12.0567 14.3334 12.0507 14.3334C12.0447 14.3334 12.0387 14.3334 12.0327 14.3334C12.0267 14.3334 12.0207 14.3334 12.0147 14.3334C12.0088 14.3334 12.0028 14.3334 11.9968 14.3334C11.9908 14.3334 11.9848 14.3334 11.9789 14.3334C11.9729 14.3334 11.9669 14.3334 11.961 14.3334C11.955 14.3334 11.949 14.3334 11.9431 14.3334C11.9371 14.3334 11.9312 14.3334 11.9252 14.3334C11.9193 14.3334 11.9133 14.3334 11.9074 14.3334C11.9015 14.3334 11.8955 14.3334 11.8896 14.3334C11.8837 14.3334 11.8777 14.3334 11.8718 14.3334C11.8659 14.3334 11.86 14.3334 11.8541 14.3334C11.8482 14.3334 11.8423 14.3334 11.8363 14.3334C11.8304 14.3334 11.8245 14.3334 11.8187 14.3334C11.8128 14.3334 11.8069 14.3334 11.801 14.3334C11.7951 14.3334 11.7892 14.3334 11.7833 14.3334C11.7775 14.3334 11.7716 14.3334 11.7657 14.3334C11.7599 14.3334 11.754 14.3334 11.7481 14.3334C11.7423 14.3334 11.7364 14.3334 11.7306 14.3334C11.7247 14.3334 11.7189 14.3334 11.713 14.3334C11.7072 14.3334 11.7013 14.3334 11.6955 14.3334C11.6897 14.3334 11.6839 14.3334 11.678 14.3334C11.6722 14.3334 11.6664 14.3334 11.6606 14.3334C11.6548 14.3334 11.6489 14.3334 11.6431 14.3334C11.6373 14.3334 11.6315 14.3334 11.6257 14.3334C11.6199 14.3334 11.6141 14.3334 11.6083 14.3334C11.6026 14.3334 11.5968 14.3334 11.591 14.3334C11.5852 14.3334 11.5794 14.3334 11.5737 14.3334C11.5679 14.3334 11.5621 14.3334 11.5564 14.3334C11.5506 14.3334 11.5448 14.3334 11.5391 14.3334C11.5333 14.3334 11.5276 14.3334 11.5218 14.3334C11.5161 14.3334 11.5104 14.3334 11.5046 14.3334C11.4989 14.3334 11.4932 14.3334 11.4874 14.3334C11.4817 14.3334 11.476 14.3334 11.4703 14.3334C11.4645 14.3334 11.4588 14.3334 11.4531 14.3334C11.4474 14.3334 11.4417 14.3334 11.436 14.3334C11.4303 14.3334 11.4246 14.3334 11.4189 14.3334C11.4132 14.3334 11.4075 14.3334 11.4019 14.3334C11.3962 14.3334 11.3905 14.3334 11.3848 14.3334C11.3792 14.3334 11.3735 14.3334 11.3678 14.3334C11.3622 14.3334 11.3565 14.3334 11.3508 14.3334C11.3452 14.3334 11.3395 14.3334 11.3339 14.3334C11.3282 14.3334 11.3226 14.3334 11.317 14.3334C11.3113 14.3334 11.3057 14.3334 11.3001 14.3334C11.2944 14.3334 11.2888 14.3334 11.2832 14.3334C11.2776 14.3334 11.2719 14.3334 11.2663 14.3334C11.2607 14.3334 11.2551 14.3334 11.2495 14.3334C11.2439 14.3334 11.2383 14.3334 11.2327 14.3334C11.2271 14.3334 11.2215 14.3334 11.216 14.3334C11.2104 14.3334 11.2048 14.3334 11.1992 14.3334C11.1937 14.3334 11.1881 14.3334 11.1825 14.3334C11.177 14.3334 11.1714 14.3334 11.1658 14.3334C11.1603 14.3334 11.1547 14.3334 11.1492 14.3334C11.1436 14.3334 11.1381 14.3334 11.1325 14.3334C11.127 14.3334 11.1215 14.3334 11.1159 14.3334C11.1104 14.3334 11.1049 14.3334 11.0994 14.3334C11.0939 14.3334 11.0883 14.3334 11.0828 14.3334C11.0773 14.3334 11.0718 14.3334 11.0663 14.3334C11.0608 14.3334 11.0553 14.3334 11.0498 14.3334C11.0443 14.3334 11.0388 14.3334 11.0333 14.3334C11.0279 14.3334 11.0224 14.3334 11.0169 14.3334C11.0114 14.3334 11.006 14.3334 11.0005 14.3334C10.995 14.3334 10.9896 14.3334 10.9841 14.3334C10.9787 14.3334 10.9732 14.3334 10.9678 14.3334C10.9623 14.3334 10.9569 14.3334 10.9514 14.3334C10.946 14.3334 10.9406 14.3334 10.9351 14.3334C10.9297 14.3334 10.9243 14.3334 10.9189 14.3334C10.9134 14.3334 10.908 14.3334 10.9026 14.3334C10.8972 14.3334 10.8918 14.3334 10.8864 14.3334C10.881 14.3334 10.8756 14.3334 10.8702 14.3334C10.8648 14.3334 10.8594 14.3334 10.854 14.3334C10.8487 14.3334 10.8433 14.3334 10.8379 14.3334C10.8325 14.3334 10.8272 14.3334 10.8218 14.3334C10.8164 14.3334 10.8111 14.3334 10.8057 14.3334C10.8004 14.3334 10.795 14.3334 10.7897 14.3334C10.7843 14.3334 10.779 14.3334 10.7736 14.3334C10.7683 14.3334 10.763 14.3334 10.7576 14.3334C10.7523 14.3334 10.747 14.3334 10.7417 14.3334C10.7363 14.3334 10.731 14.3334 10.7257 14.3334C10.7204 14.3334 10.7151 14.3334 10.7098 14.3334C10.7045 14.3334 10.6992 14.3334 10.6939 14.3334C10.6886 14.3334 10.6833 14.3334 10.6781 14.3334C10.6728 14.3334 10.6675 14.3334 10.6622 14.3334C10.657 14.3334 10.6517 14.3334 10.6464 14.3334C10.6412 14.3334 10.6359 14.3334 10.6307 14.3334C10.6254 14.3334 10.6202 14.3334 10.6149 14.3334C10.6097 14.3334 10.6044 14.3334 10.5992 14.3334C10.594 14.3334 10.5887 14.3334 10.5835 14.3334C10.5783 14.3334 10.5731 14.3334 10.5678 14.3334C10.5626 14.3334 10.5574 14.3334 10.5522 14.3334C10.547 14.3334 10.5418 14.3334 10.5366 14.3334C10.5314 14.3334 10.5262 14.3334 10.521 14.3334C10.5158 14.3334 10.5106 14.3334 10.5055 14.3334C10.5003 14.3334 10.4951 14.3334 10.4899 14.3334C10.4848 14.3334 10.4796 14.3334 10.4745 14.3334C10.4693 14.3334 10.4641 14.3334 10.459 14.3334C10.4538 14.3334 10.4487 14.3334 10.4435 14.3334C10.4384 14.3334 10.4333 14.3334 10.4281 14.3334C10.423 14.3334 10.4179 14.3334 10.4128 14.3334C10.4076 14.3334 10.4025 14.3334 10.3974 14.3334C10.3923 14.3334 10.3872 14.3334 10.3821 14.3334C10.377 14.3334 10.3719 14.3334 10.3668 14.3334C10.3617 14.3334 10.3566 14.3334 10.3515 14.3334C10.3464 14.3334 10.3414 14.3334 10.3363 14.3334C10.3312 14.3334 10.3261 14.3334 10.3211 14.3334C10.316 14.3334 10.3109 14.3334 10.3059 14.3334C10.3008 14.3334 10.2958 14.3334 10.2907 14.3334C10.2857 14.3334 10.2806 14.3334 10.2756 14.3334C10.2706 14.3334 10.2655 14.3334 10.2605 14.3334C10.2555 14.3334 10.2505 14.3334 10.2454 14.3334C10.2404 14.3334 10.2354 14.3334 10.2304 14.3334C10.2254 14.3334 10.2204 14.3334 10.2154 14.3334C10.2104 14.3334 10.2054 14.3334 10.2004 14.3334C10.1954 14.3334 10.1904 14.3334 10.1854 14.3334C10.1805 14.3334 10.1755 14.3334 10.1705 14.3334C10.1656 14.3334 10.1606 14.3334 10.1556 14.3334C10.1507 14.3334 10.1457 14.3334 10.1408 14.3334C10.1358 14.3334 10.1309 14.3334 10.1259 14.3334C10.121 14.3334 10.116 14.3334 10.1111 14.3334C10.1062 14.3334 10.1012 14.3334 10.0963 14.3334C10.0914 14.3334 10.0865 14.3334 10.0816 14.3334C10.0767 14.3334 10.0718 14.3334 10.0668 14.3334C10.0619 14.3334 10.057 14.3334 10.0522 14.3334C10.0473 14.3334 10.0424 14.3334 10.0375 14.3334C10.0326 14.3334 10.0277 14.3334 10.0228 14.3334C10.018 14.3334 10.0131 14.3334 10.0082 14.3334C10.0034 14.3334 9.99851 14.3334 9.99366 14.3334C9.9888 14.3334 9.98395 14.3334 9.97911 14.3334C9.97426 14.3334 9.96942 14.3334 9.96459 14.3334C9.95975 14.3334 9.95492 14.3334 9.95009 14.3334C9.94527 14.3334 9.94045 14.3334 9.93563 14.3334C9.93081 14.3334 9.926 14.3334 9.92119 14.3334C9.91639 14.3334 9.91159 14.3334 9.90679 14.3334C9.90199 14.3334 9.8972 14.3334 9.89241 14.3334C9.88762 14.3334 9.88284 14.3334 9.87806 14.3334C9.87329 14.3334 9.86851 14.3334 9.86375 14.3334C9.85898 14.3334 9.85422 14.3334 9.84946 14.3334C9.8447 14.3334 9.83995 14.3334 9.8352 14.3334C9.83045 14.3334 9.82571 14.3334 9.82097 14.3334C9.81623 14.3334 9.8115 14.3334 9.80677 14.3334C9.80204 14.3334 9.79731 14.3334 9.79259 14.3334C9.78788 14.3334 9.78316 14.3334 9.77845 14.3334C9.77374 14.3334 9.76904 14.3334 9.76434 14.3334C9.75964 14.3334 9.75494 14.3334 9.75025 14.3334C9.74556 14.3334 9.74088 14.3334 9.7362 14.3334C9.73152 14.3334 9.72684 14.3334 9.72217 14.3334C9.7175 14.3334 9.71284 14.3334 9.70818 14.3334C9.70352 14.3334 9.69886 14.3334 9.69421 14.3334C9.68956 14.3334 9.68492 14.3334 9.68028 14.3334C9.67564 14.3334 9.671 14.3334 9.66637 14.3334C9.66174 14.3334 9.65711 14.3334 9.65249 14.3334C9.64787 14.3334 9.64325 14.3334 9.63864 14.3334C9.63403 14.3334 9.62943 14.3334 9.62482 14.3334C9.62022 14.3334 9.61563 14.3334 9.61104 14.3334C9.60644 14.3334 9.60186 14.3334 9.59728 14.3334C9.5927 14.3334 9.58812 14.3334 9.58355 14.3334C9.57898 14.3334 9.57441 14.3334 9.56985 14.3334C9.56529 14.3334 9.56073 14.3334 9.55618 14.3334C9.55163 14.3334 9.54708 14.3334 9.54254 14.3334C9.53799 14.3334 9.53346 14.3334 9.52893 14.3334C9.52439 14.3334 9.51987 14.3334 9.51535 14.3334C9.51082 14.3334 9.50631 14.3334 9.50179 14.3334C9.49728 14.3334 9.49277 14.3334 9.48827 14.3334C9.48377 14.3334 9.47927 14.3334 9.47478 14.3334C9.47029 14.3334 9.4658 14.3334 9.46132 14.3334C9.45684 14.3334 9.45236 14.3334 9.44789 14.3334C9.44342 14.3334 9.43895 14.3334 9.43449 14.3334C9.43002 14.3334 9.42557 14.3334 9.42111 14.3334C9.41666 14.3334 9.41222 14.3334 9.40777 14.3334C9.40333 14.3334 9.39889 14.3334 9.39446 14.3334C9.39003 14.3334 9.3856 14.3334 9.38118 14.3334C9.37676 14.3334 9.37234 14.3334 9.36793 14.3334C9.36352 14.3334 9.35911 14.3334 9.35471 14.3334C9.3503 14.3334 9.34591 14.3334 9.34152 14.3334C9.33712 14.3334 9.33274 14.3334 9.32835 14.3334C9.32397 14.3334 9.31959 14.3334 9.31522 14.3334C9.31085 14.3334 9.30648 14.3334 9.30212 14.3334C9.29776 14.3334 9.2934 14.3334 9.28905 14.3334C9.2847 14.3334 9.28035 14.3334 9.27601 14.3334C9.27167 14.3334 9.26733 14.3334 9.263 14.3334C9.25867 14.3334 9.25434 14.3334 9.25002 14.3334C9.2457 14.3334 9.24138 14.3334 9.23707 14.3334C9.23276 14.3334 9.22845 14.3334 9.22415 14.3334C9.21985 14.3334 9.21555 14.3334 9.21126 14.3334C9.20697 14.3334 9.20268 14.3334 9.1984 14.3334C9.19412 14.3334 9.18985 14.3334 9.18557 14.3334C9.1813 14.3334 9.17704 14.3334 9.17278 14.3334C9.16852 14.3334 9.16426 14.3334 9.16001 14.3334C9.15576 14.3334 9.15151 14.3334 9.14727 14.3334C9.14303 14.3334 9.1388 14.3334 9.13457 14.3334C9.13034 14.3334 9.12611 14.3334 9.12189 14.3334C9.11767 14.3334 9.11345 14.3334 9.10924 14.3334C9.10503 14.3334 9.10083 14.3334 9.09663 14.3334C9.09243 14.3334 9.08824 14.3334 9.08405 14.3334C9.07986 14.3334 9.07567 14.3334 9.07149 14.3334C9.06731 14.3334 9.06314 14.3334 9.05897 14.3334C9.0548 14.3334 9.05064 14.3334 9.04648 14.3334C9.04232 14.3334 9.03816 14.3334 9.03401 14.3334C9.02987 14.3334 9.02572 14.3334 9.02158 14.3334C9.01745 14.3334 9.01331 14.3334 9.00918 14.3334C9.00506 14.3334 9.00093 14.3334 8.99681 14.3334C8.9927 14.3334 8.98858 14.3334 8.98448 14.3334C8.98037 14.3334 8.97627 14.3334 8.97217 14.3334C8.96807 14.3334 8.96398 14.3334 8.95989 14.3334C8.9558 14.3334 8.95172 14.3334 8.94765 14.3334C8.94357 14.3334 8.9395 14.3334 8.93543 14.3334C8.93136 14.3334 8.9273 14.3334 8.92325 14.3334C8.91919 14.3334 8.91514 14.3334 8.91109 14.3334C8.90705 14.3334 8.90301 14.3334 8.89897 14.3334C8.89493 14.3334 8.8909 14.3334 8.88688 14.3334C8.88285 14.3334 8.87883 14.3334 8.87482 14.3334C8.8708 14.3334 8.86679 14.3334 8.86279 14.3334C8.85878 14.3334 8.85478 14.3334 8.85079 14.3334C8.8468 14.3334 8.84281 14.3334 8.83882 14.3334C8.83484 14.3334 8.83086 14.3334 8.82689 14.3334C8.82291 14.3334 8.81895 14.3334 8.81498 14.3334C8.81102 14.3334 8.80706 14.3334 8.80311 14.3334C8.79916 14.3334 8.79521 14.3334 8.79127 14.3334C8.78732 14.3334 8.78339 14.3334 8.77945 14.3334C8.77552 14.3334 8.7716 14.3334 8.76767 14.3334C8.76375 14.3334 8.75984 14.3334 8.75593 14.3334C8.75201 14.3334 8.74811 14.3334 8.74421 14.3334C8.74031 14.3334 8.73641 14.3334 8.73252 14.3334C8.72863 14.3334 8.72475 14.3334 8.72087 14.3334C8.71699 14.3334 8.71311 14.3334 8.70924 14.3334C8.70537 14.3334 8.70151 14.3334 8.69765 14.3334C8.69379 14.3334 8.68994 14.3334 8.68609 14.3334C8.68224 14.3334 8.6784 14.3334 8.67456 14.3334C8.67072 14.3334 8.66689 14.3334 8.66306 14.3334C8.65923 14.3334 8.65541 14.3334 8.6516 14.3334C8.64778 14.3334 8.64397 14.3334 8.64016 14.3334C8.63635 14.3334 8.63255 14.3334 8.62876 14.3334C8.62496 14.3334 8.62117 14.3334 8.61738 14.3334C8.6136 14.3334 8.60982 14.3334 8.60604 14.3334C8.60227 14.3334 8.5985 14.3334 8.59474 14.3334C8.59097 14.3334 8.58721 14.3334 8.58346 14.3334C8.5797 14.3334 8.57596 14.3334 8.57221 14.3334C8.56847 14.3334 8.56473 14.3334 8.561 14.3334C8.55727 14.3334 8.55354 14.3334 8.54982 14.3334C8.54609 14.3334 8.54238 14.3334 8.53867 14.3334C8.53495 14.3334 8.53125 14.3334 8.52755 14.3334C8.52385 14.3334 8.52015 14.3334 8.51646 14.3334C8.51277 14.3334 8.50909 14.3334 8.50541 14.3334C8.50173 14.3334 8.49805 14.3334 8.49438 14.3334C8.49071 14.3334 8.48705 14.3334 8.48339 14.3334C8.47973 14.3334 8.47608 14.3334 8.47243 14.3334C8.46878 14.3334 8.46514 14.3334 8.4615 14.3334C8.45787 14.3334 8.45423 14.3334 8.45061 14.3334C8.44698 14.3334 8.44336 14.3334 8.43974 14.3334C8.43613 14.3334 8.43252 14.3334 8.42891 14.3334C8.42531 14.3334 8.42171 14.3334 8.41811 14.3334C8.41452 14.3334 8.41093 14.3334 8.40734 14.3334C8.40376 14.3334 8.40018 14.3334 8.39661 14.3334C8.39304 14.3334 8.38947 14.3334 8.3859 14.3334C8.38234 14.3334 8.37878 14.3334 8.37523 14.3334C8.37168 14.3334 8.36813 14.3334 8.36459 14.3334C8.36105 14.3334 8.35752 14.3334 8.35399 14.3334C8.35046 14.3334 8.34693 14.3334 8.34341 14.3334C8.33989 14.3334 8.33638 14.3334 8.33287 14.3334C8.32936 14.3334 8.32586 14.3334 8.32236 14.3334C8.31886 14.3334 8.31537 14.3334 8.31188 14.3334C8.30839 14.3334 8.30491 14.3334 8.30143 14.3334C8.29796 14.3334 8.29448 14.3334 8.29102 14.3334C8.28755 14.3334 8.28409 14.3334 8.28064 14.3334C8.27718 14.3334 8.27373 14.3334 8.27029 14.3334C8.26684 14.3334 8.2634 14.3334 8.25997 14.3334C8.25654 14.3334 8.25311 14.3334 8.24968 14.3334C8.24626 14.3334 8.24284 14.3334 8.23943 14.3334C8.23602 14.3334 8.23261 14.3334 8.22921 14.3334C8.22581 14.3334 8.22242 14.3334 8.21903 14.3334C8.21563 14.3334 8.21225 14.3334 8.20887 14.3334C8.20549 14.3334 8.20212 14.3334 8.19875 14.3334C8.19538 14.3334 8.19202 14.3334 8.18866 14.3334C8.1853 14.3334 8.18195 14.3334 8.1786 14.3334C8.17525 14.3334 8.17191 14.3334 8.16858 14.3334C8.16524 14.3334 8.16191 14.3334 8.15858 14.3334C8.15526 14.3334 8.15194 14.3334 8.14862 14.3334C8.14531 14.3334 8.142 14.3334 8.1387 14.3334C8.13539 14.3334 8.1321 14.3334 8.1288 14.3334C8.12551 14.3334 8.12222 14.3334 8.11894 14.3334C8.11566 14.3334 8.11238 14.3334 8.10911 14.3334C8.10584 14.3334 8.10258 14.3334 8.09932 14.3334C8.09606 14.3334 8.0928 14.3334 8.08955 14.3334C8.0863 14.3334 8.08306 14.3334 8.07982 14.3334C8.07659 14.3334 8.07335 14.3334 8.07013 14.3334C8.0669 14.3334 8.06368 14.3334 8.06046 14.3334C8.05724 14.3334 8.05403 14.3334 8.05083 14.3334C8.04762 14.3334 8.04442 14.3334 8.04123 14.3334C8.03804 14.3334 8.03485 14.3334 8.03166 14.3334C8.02848 14.3334 8.0253 14.3334 8.02213 14.3334C8.01896 14.3334 8.01579 14.3334 8.01263 14.3334C8.00947 14.3334 8.00631 14.3334 8.00316 14.3334C8.00001 14.3334 7.99687 14.3334 7.99373 14.3334C7.99059 14.3334 7.98746 14.3334 7.98433 14.3334C7.9812 14.3334 7.97808 14.3334 7.97496 14.3334C7.97184 14.3334 7.96873 14.3334 7.96562 14.3334C7.96252 14.3334 7.95942 14.3334 7.95632 14.3334C7.95323 14.3334 7.95014 14.3334 7.94705 14.3334C7.94397 14.3334 7.94089 14.3334 7.93782 14.3334C7.93475 14.3334 7.93168 14.3334 7.92862 14.3334C7.92555 14.3334 7.9225 14.3334 7.91945 14.3334C7.9164 14.3334 7.91335 14.3334 7.91031 14.3334C7.90727 14.3334 7.90424 14.3334 7.90121 14.3334C7.89818 14.3334 7.89516 14.3334 7.89214 14.3334C7.88912 14.3334 7.88611 14.3334 7.8831 14.3334C7.8801 14.3334 7.8771 14.3334 7.8741 14.3334C7.87111 14.3334 7.86812 14.3334 7.86513 14.3334C7.86215 14.3334 7.85917 14.3334 7.8562 14.3334C7.85322 14.3334 7.85026 14.3334 7.84729 14.3334C7.84433 14.3334 7.84137 14.3334 7.83842 14.3334C7.83547 14.3334 7.83253 14.3334 7.82959 14.3334C7.82665 14.3334 7.82371 14.3334 7.82079 14.3334C7.81786 14.3334 7.81493 14.3334 7.81202 14.3334C7.8091 14.3334 7.80619 14.3334 7.80328 14.3334C7.80038 14.3334 7.79748 14.3334 7.79458 14.3334C7.79169 14.3334 7.7888 14.3334 7.78591 14.3334C7.78303 14.3334 7.78015 14.3334 7.77728 14.3334C7.77441 14.3334 7.77154 14.3334 7.76868 14.3334C7.76582 14.3334 7.76296 14.3334 7.76011 14.3334C7.75726 14.3334 7.75442 14.3334 7.75158 14.3334C7.74874 14.3334 7.74591 14.3334 7.74308 14.3334C7.74025 14.3334 7.73743 14.3334 7.73461 14.3334C7.7318 14.3334 7.72898 14.3334 7.72618 14.3334C7.72337 14.3334 7.72058 14.3334 7.71778 14.3334C7.71499 14.3334 7.7122 14.3334 7.70942 14.3334C7.70663 14.3334 7.70386 14.3334 7.70109 14.3334C7.69831 14.3334 7.69555 14.3334 7.69279 14.3334C7.69003 14.3334 7.68727 14.3334 7.68453 14.3334C7.68178 14.3334 7.67903 14.3334 7.6763 14.3334C7.67356 14.3334 7.67083 14.3334 7.6681 14.3334C7.66538 14.3334 7.66266 14.3334 7.65994 14.3334C7.65723 14.3334 7.65452 14.3334 7.65181 14.3334C7.64911 14.3334 7.64641 14.3334 7.64372 14.3334C7.64103 14.3334 7.63834 14.3334 7.63566 14.3334C7.63298 14.3334 7.6303 14.3334 7.62764 14.3334C7.62497 14.3334 7.6223 14.3334 7.61964 14.3334C7.61699 14.3334 7.61433 14.3334 7.61169 14.3334C7.60904 14.3334 7.6064 14.3334 7.60376 14.3334C7.60113 14.3334 7.5985 14.3334 7.59588 14.3334C7.59325 14.3334 7.59063 14.3334 7.58802 14.3334C7.58541 14.3334 7.5828 14.3334 7.5802 14.3334C7.5776 14.3334 7.575 14.3334 7.57241 14.3334C7.56982 14.3334 7.56724 14.3334 7.56466 14.3334C7.56208 14.3334 7.55951 14.3334 7.55694 14.3334C7.55438 14.3334 7.55182 14.3334 7.54926 14.3334C7.54671 14.3334 7.54416 14.3334 7.54161 14.3334C7.53907 14.3334 7.53653 14.3334 7.534 14.3334C7.53147 14.3334 7.52894 14.3334 7.52642 14.3334C7.5239 14.3334 7.52138 14.3334 7.51887 14.3334C7.51636 14.3334 7.51386 14.3334 7.51136 14.3334C7.50886 14.3334 7.50637 14.3334 7.50388 14.3334C7.5014 14.3334 7.49892 14.3334 7.49644 14.3334C7.49396 14.3334 7.4915 14.3334 7.48903 14.3334C7.48657 14.3334 7.48411 14.3334 7.48166 14.3334C7.47921 14.3334 7.47676 14.3334 7.47432 14.3334C7.47188 14.3334 7.46944 14.3334 7.46701 14.3334C7.46459 14.3334 7.46216 14.3334 7.45974 14.3334C7.45733 14.3334 7.45492 14.3334 7.45251 14.3334C7.4501 14.3334 7.4477 14.3334 7.44531 14.3334C7.44291 14.3334 7.44053 14.3334 7.43814 14.3334C7.43576 14.3334 7.43338 14.3334 7.43101 14.3334C7.42864 14.3334 7.42627 14.3334 7.42391 14.3334C7.42156 14.3334 7.4192 14.3334 7.41685 14.3334C7.4145 14.3334 7.41216 14.3334 7.40983 14.3334C7.40749 14.3334 7.40516 14.3334 7.40283 14.3334C7.40051 14.3334 7.39819 14.3334 7.39588 14.3334C7.39356 14.3334 7.39125 14.3334 7.38895 14.3334C7.38665 14.3334 7.38436 14.3334 7.38207 14.3334C7.37978 14.3334 7.37749 14.3334 7.37521 14.3334C7.37293 14.3334 7.37066 14.3334 7.36839 14.3334C7.36613 14.3334 7.36387 14.3334 7.36161 14.3334C7.35936 14.3334 7.35711 14.3334 7.35486 14.3334C7.35262 14.3334 7.35038 14.3334 7.34815 14.3334C7.34592 14.3334 7.34369 14.3334 7.34147 14.3334C7.33925 14.3334 7.33704 14.3334 7.33483 14.3334C7.33262 14.3334 7.33042 14.3334 7.32822 14.3334C7.32602 14.3334 7.32383 14.3334 7.32165 14.3334C7.31946 14.3334 7.31728 14.3334 7.31511 14.3334C7.31294 14.3334 7.31077 14.3334 7.30861 14.3334C7.30644 14.3334 7.30429 14.3334 7.30214 14.3334C7.29999 14.3334 7.29784 14.3334 7.29571 14.3334C7.29357 14.3334 7.29144 14.3334 7.28931 14.3334C7.28718 14.3334 7.28506 14.3334 7.28295 14.3334C7.28083 14.3334 7.27872 14.3334 7.27662 14.3334C7.27452 14.3334 7.27242 14.3334 7.27033 14.3334C7.26824 14.3334 7.26615 14.3334 7.26407 14.3334C7.26199 14.3334 7.25992 14.3334 7.25785 14.3334C7.25578 14.3334 7.25372 14.3334 7.25167 14.3334C7.24961 14.3334 7.24756 14.3334 7.24552 14.3334C7.24347 14.3334 7.24143 14.3334 7.2394 14.3334C7.23737 14.3334 7.23534 14.3334 7.23332 14.3334C7.2313 14.3334 7.22929 14.3334 7.22728 14.3334C7.22527 14.3334 7.22327 14.3334 7.22127 14.3334C7.21927 14.3334 7.21728 14.3334 7.2153 14.3334C7.21331 14.3334 7.21133 14.3334 7.20936 14.3334C7.20739 14.3334 7.20542 14.3334 7.20346 14.3334C7.2015 14.3334 7.19954 14.3334 7.19759 14.3334C7.19564 14.3334 7.1937 14.3334 7.19176 14.3334C7.18982 14.3334 7.18789 14.3334 7.18596 14.3334C7.18404 14.3334 7.18212 14.3334 7.18021 14.3334C7.17829 14.3334 7.17638 14.3334 7.17448 14.3334C7.17258 14.3334 7.17068 14.3334 7.16879 14.3334C7.1669 14.3334 7.16502 14.3334 7.16314 14.3334C7.16126 14.3334 7.15939 14.3334 7.15752 14.3334C7.15566 14.3334 7.1538 14.3334 7.15194 14.3334C7.15009 14.3334 7.14824 14.3334 7.1464 14.3334C7.14456 14.3334 7.14272 14.3334 7.14089 14.3334C7.13906 14.3334 7.13723 14.3334 7.13542 14.3334C7.1336 14.3334 7.13178 14.3334 7.12998 14.3334C7.12817 14.3334 7.12637 14.3334 7.12458 14.3334C7.12278 14.3334 7.12099 14.3334 7.11921 14.3334V16.3334C7.12099 16.3334 7.12278 16.3334 7.12458 16.3334C7.12637 16.3334 7.12817 16.3334 7.12998 16.3334C7.13178 16.3334 7.1336 16.3334 7.13542 16.3334C7.13723 16.3334 7.13906 16.3334 7.14089 16.3334C7.14272 16.3334 7.14456 16.3334 7.1464 16.3334C7.14824 16.3334 7.15009 16.3334 7.15194 16.3334C7.1538 16.3334 7.15566 16.3334 7.15752 16.3334C7.15939 16.3334 7.16126 16.3334 7.16314 16.3334C7.16502 16.3334 7.1669 16.3334 7.16879 16.3334C7.17068 16.3334 7.17258 16.3334 7.17448 16.3334C7.17638 16.3334 7.17829 16.3334 7.18021 16.3334C7.18212 16.3334 7.18404 16.3334 7.18596 16.3334C7.18789 16.3334 7.18982 16.3334 7.19176 16.3334C7.1937 16.3334 7.19564 16.3334 7.19759 16.3334C7.19954 16.3334 7.2015 16.3334 7.20346 16.3334C7.20542 16.3334 7.20739 16.3334 7.20936 16.3334C7.21133 16.3334 7.21331 16.3334 7.2153 16.3334C7.21728 16.3334 7.21927 16.3334 7.22127 16.3334C7.22327 16.3334 7.22527 16.3334 7.22728 16.3334C7.22929 16.3334 7.2313 16.3334 7.23332 16.3334C7.23534 16.3334 7.23737 16.3334 7.2394 16.3334C7.24143 16.3334 7.24347 16.3334 7.24552 16.3334C7.24756 16.3334 7.24961 16.3334 7.25167 16.3334C7.25372 16.3334 7.25578 16.3334 7.25785 16.3334C7.25992 16.3334 7.26199 16.3334 7.26407 16.3334C7.26615 16.3334 7.26824 16.3334 7.27033 16.3334C7.27242 16.3334 7.27452 16.3334 7.27662 16.3334C7.27872 16.3334 7.28083 16.3334 7.28295 16.3334C7.28506 16.3334 7.28718 16.3334 7.28931 16.3334C7.29144 16.3334 7.29357 16.3334 7.29571 16.3334C7.29784 16.3334 7.29999 16.3334 7.30214 16.3334C7.30429 16.3334 7.30644 16.3334 7.30861 16.3334C7.31077 16.3334 7.31294 16.3334 7.31511 16.3334C7.31728 16.3334 7.31946 16.3334 7.32165 16.3334C7.32383 16.3334 7.32602 16.3334 7.32822 16.3334C7.33042 16.3334 7.33262 16.3334 7.33483 16.3334C7.33704 16.3334 7.33925 16.3334 7.34147 16.3334C7.34369 16.3334 7.34592 16.3334 7.34815 16.3334C7.35038 16.3334 7.35262 16.3334 7.35486 16.3334C7.35711 16.3334 7.35936 16.3334 7.36161 16.3334C7.36387 16.3334 7.36613 16.3334 7.36839 16.3334C7.37066 16.3334 7.37293 16.3334 7.37521 16.3334C7.37749 16.3334 7.37978 16.3334 7.38207 16.3334C7.38436 16.3334 7.38665 16.3334 7.38895 16.3334C7.39125 16.3334 7.39356 16.3334 7.39588 16.3334C7.39819 16.3334 7.40051 16.3334 7.40283 16.3334C7.40516 16.3334 7.40749 16.3334 7.40983 16.3334C7.41216 16.3334 7.4145 16.3334 7.41685 16.3334C7.4192 16.3334 7.42156 16.3334 7.42391 16.3334C7.42627 16.3334 7.42864 16.3334 7.43101 16.3334C7.43338 16.3334 7.43576 16.3334 7.43814 16.3334C7.44053 16.3334 7.44291 16.3334 7.44531 16.3334C7.4477 16.3334 7.4501 16.3334 7.45251 16.3334C7.45492 16.3334 7.45733 16.3334 7.45974 16.3334C7.46216 16.3334 7.46459 16.3334 7.46701 16.3334C7.46944 16.3334 7.47188 16.3334 7.47432 16.3334C7.47676 16.3334 7.47921 16.3334 7.48166 16.3334C7.48411 16.3334 7.48657 16.3334 7.48903 16.3334C7.4915 16.3334 7.49396 16.3334 7.49644 16.3334C7.49892 16.3334 7.5014 16.3334 7.50388 16.3334C7.50637 16.3334 7.50886 16.3334 7.51136 16.3334C7.51386 16.3334 7.51636 16.3334 7.51887 16.3334C7.52138 16.3334 7.5239 16.3334 7.52642 16.3334C7.52894 16.3334 7.53147 16.3334 7.534 16.3334C7.53653 16.3334 7.53907 16.3334 7.54161 16.3334C7.54416 16.3334 7.54671 16.3334 7.54926 16.3334C7.55182 16.3334 7.55438 16.3334 7.55694 16.3334C7.55951 16.3334 7.56208 16.3334 7.56466 16.3334C7.56724 16.3334 7.56982 16.3334 7.57241 16.3334C7.575 16.3334 7.5776 16.3334 7.5802 16.3334C7.5828 16.3334 7.58541 16.3334 7.58802 16.3334C7.59063 16.3334 7.59325 16.3334 7.59588 16.3334C7.5985 16.3334 7.60113 16.3334 7.60376 16.3334C7.6064 16.3334 7.60904 16.3334 7.61169 16.3334C7.61433 16.3334 7.61699 16.3334 7.61964 16.3334C7.6223 16.3334 7.62497 16.3334 7.62764 16.3334C7.6303 16.3334 7.63298 16.3334 7.63566 16.3334C7.63834 16.3334 7.64103 16.3334 7.64372 16.3334C7.64641 16.3334 7.64911 16.3334 7.65181 16.3334C7.65452 16.3334 7.65723 16.3334 7.65994 16.3334C7.66266 16.3334 7.66538 16.3334 7.6681 16.3334C7.67083 16.3334 7.67356 16.3334 7.6763 16.3334C7.67903 16.3334 7.68178 16.3334 7.68453 16.3334C7.68727 16.3334 7.69003 16.3334 7.69279 16.3334C7.69555 16.3334 7.69831 16.3334 7.70109 16.3334C7.70386 16.3334 7.70663 16.3334 7.70942 16.3334C7.7122 16.3334 7.71499 16.3334 7.71778 16.3334C7.72058 16.3334 7.72337 16.3334 7.72618 16.3334C7.72898 16.3334 7.7318 16.3334 7.73461 16.3334C7.73743 16.3334 7.74025 16.3334 7.74308 16.3334C7.74591 16.3334 7.74874 16.3334 7.75158 16.3334C7.75442 16.3334 7.75726 16.3334 7.76011 16.3334C7.76296 16.3334 7.76582 16.3334 7.76868 16.3334C7.77154 16.3334 7.77441 16.3334 7.77728 16.3334C7.78015 16.3334 7.78303 16.3334 7.78591 16.3334C7.7888 16.3334 7.79169 16.3334 7.79458 16.3334C7.79748 16.3334 7.80038 16.3334 7.80328 16.3334C7.80619 16.3334 7.8091 16.3334 7.81202 16.3334C7.81493 16.3334 7.81786 16.3334 7.82079 16.3334C7.82371 16.3334 7.82665 16.3334 7.82959 16.3334C7.83253 16.3334 7.83547 16.3334 7.83842 16.3334C7.84137 16.3334 7.84433 16.3334 7.84729 16.3334C7.85026 16.3334 7.85322 16.3334 7.8562 16.3334C7.85917 16.3334 7.86215 16.3334 7.86513 16.3334C7.86812 16.3334 7.87111 16.3334 7.8741 16.3334C7.8771 16.3334 7.8801 16.3334 7.8831 16.3334C7.88611 16.3334 7.88912 16.3334 7.89214 16.3334C7.89516 16.3334 7.89818 16.3334 7.90121 16.3334C7.90424 16.3334 7.90727 16.3334 7.91031 16.3334C7.91335 16.3334 7.9164 16.3334 7.91945 16.3334C7.9225 16.3334 7.92555 16.3334 7.92862 16.3334C7.93168 16.3334 7.93475 16.3334 7.93782 16.3334C7.94089 16.3334 7.94397 16.3334 7.94705 16.3334C7.95014 16.3334 7.95323 16.3334 7.95632 16.3334C7.95942 16.3334 7.96252 16.3334 7.96562 16.3334C7.96873 16.3334 7.97184 16.3334 7.97496 16.3334C7.97808 16.3334 7.9812 16.3334 7.98433 16.3334C7.98746 16.3334 7.99059 16.3334 7.99373 16.3334C7.99687 16.3334 8.00001 16.3334 8.00316 16.3334C8.00631 16.3334 8.00947 16.3334 8.01263 16.3334C8.01579 16.3334 8.01896 16.3334 8.02213 16.3334C8.0253 16.3334 8.02848 16.3334 8.03166 16.3334C8.03485 16.3334 8.03804 16.3334 8.04123 16.3334C8.04442 16.3334 8.04762 16.3334 8.05083 16.3334C8.05403 16.3334 8.05724 16.3334 8.06046 16.3334C8.06368 16.3334 8.0669 16.3334 8.07013 16.3334C8.07335 16.3334 8.07659 16.3334 8.07982 16.3334C8.08306 16.3334 8.0863 16.3334 8.08955 16.3334C8.0928 16.3334 8.09606 16.3334 8.09932 16.3334C8.10258 16.3334 8.10584 16.3334 8.10911 16.3334C8.11238 16.3334 8.11566 16.3334 8.11894 16.3334C8.12222 16.3334 8.12551 16.3334 8.1288 16.3334C8.1321 16.3334 8.13539 16.3334 8.1387 16.3334C8.142 16.3334 8.14531 16.3334 8.14862 16.3334C8.15194 16.3334 8.15526 16.3334 8.15858 16.3334C8.16191 16.3334 8.16524 16.3334 8.16858 16.3334C8.17191 16.3334 8.17525 16.3334 8.1786 16.3334C8.18195 16.3334 8.1853 16.3334 8.18866 16.3334C8.19202 16.3334 8.19538 16.3334 8.19875 16.3334C8.20212 16.3334 8.20549 16.3334 8.20887 16.3334C8.21225 16.3334 8.21563 16.3334 8.21903 16.3334C8.22242 16.3334 8.22581 16.3334 8.22921 16.3334C8.23261 16.3334 8.23602 16.3334 8.23943 16.3334C8.24284 16.3334 8.24626 16.3334 8.24968 16.3334C8.25311 16.3334 8.25654 16.3334 8.25997 16.3334C8.2634 16.3334 8.26684 16.3334 8.27029 16.3334C8.27373 16.3334 8.27718 16.3334 8.28064 16.3334C8.28409 16.3334 8.28755 16.3334 8.29102 16.3334C8.29448 16.3334 8.29796 16.3334 8.30143 16.3334C8.30491 16.3334 8.30839 16.3334 8.31188 16.3334C8.31537 16.3334 8.31886 16.3334 8.32236 16.3334C8.32586 16.3334 8.32936 16.3334 8.33287 16.3334C8.33638 16.3334 8.33989 16.3334 8.34341 16.3334C8.34693 16.3334 8.35046 16.3334 8.35399 16.3334C8.35752 16.3334 8.36105 16.3334 8.36459 16.3334C8.36813 16.3334 8.37168 16.3334 8.37523 16.3334C8.37878 16.3334 8.38234 16.3334 8.3859 16.3334C8.38947 16.3334 8.39304 16.3334 8.39661 16.3334C8.40018 16.3334 8.40376 16.3334 8.40734 16.3334C8.41093 16.3334 8.41452 16.3334 8.41811 16.3334C8.42171 16.3334 8.42531 16.3334 8.42891 16.3334C8.43252 16.3334 8.43613 16.3334 8.43974 16.3334C8.44336 16.3334 8.44698 16.3334 8.45061 16.3334C8.45423 16.3334 8.45787 16.3334 8.4615 16.3334C8.46514 16.3334 8.46878 16.3334 8.47243 16.3334C8.47608 16.3334 8.47973 16.3334 8.48339 16.3334C8.48705 16.3334 8.49071 16.3334 8.49438 16.3334C8.49805 16.3334 8.50173 16.3334 8.50541 16.3334C8.50909 16.3334 8.51277 16.3334 8.51646 16.3334C8.52015 16.3334 8.52385 16.3334 8.52755 16.3334C8.53125 16.3334 8.53495 16.3334 8.53867 16.3334C8.54238 16.3334 8.54609 16.3334 8.54982 16.3334C8.55354 16.3334 8.55727 16.3334 8.561 16.3334C8.56473 16.3334 8.56847 16.3334 8.57221 16.3334C8.57596 16.3334 8.5797 16.3334 8.58346 16.3334C8.58721 16.3334 8.59097 16.3334 8.59474 16.3334C8.5985 16.3334 8.60227 16.3334 8.60604 16.3334C8.60982 16.3334 8.6136 16.3334 8.61738 16.3334C8.62117 16.3334 8.62496 16.3334 8.62876 16.3334C8.63255 16.3334 8.63635 16.3334 8.64016 16.3334C8.64397 16.3334 8.64778 16.3334 8.6516 16.3334C8.65541 16.3334 8.65923 16.3334 8.66306 16.3334C8.66689 16.3334 8.67072 16.3334 8.67456 16.3334C8.6784 16.3334 8.68224 16.3334 8.68609 16.3334C8.68994 16.3334 8.69379 16.3334 8.69765 16.3334C8.70151 16.3334 8.70537 16.3334 8.70924 16.3334C8.71311 16.3334 8.71699 16.3334 8.72087 16.3334C8.72475 16.3334 8.72863 16.3334 8.73252 16.3334C8.73641 16.3334 8.74031 16.3334 8.74421 16.3334C8.74811 16.3334 8.75201 16.3334 8.75593 16.3334C8.75984 16.3334 8.76375 16.3334 8.76767 16.3334C8.7716 16.3334 8.77552 16.3334 8.77945 16.3334C8.78339 16.3334 8.78732 16.3334 8.79127 16.3334C8.79521 16.3334 8.79916 16.3334 8.80311 16.3334C8.80706 16.3334 8.81102 16.3334 8.81498 16.3334C8.81895 16.3334 8.82291 16.3334 8.82689 16.3334C8.83086 16.3334 8.83484 16.3334 8.83882 16.3334C8.84281 16.3334 8.8468 16.3334 8.85079 16.3334C8.85478 16.3334 8.85878 16.3334 8.86279 16.3334C8.86679 16.3334 8.8708 16.3334 8.87482 16.3334C8.87883 16.3334 8.88285 16.3334 8.88688 16.3334C8.8909 16.3334 8.89493 16.3334 8.89897 16.3334C8.90301 16.3334 8.90705 16.3334 8.91109 16.3334C8.91514 16.3334 8.91919 16.3334 8.92325 16.3334C8.9273 16.3334 8.93136 16.3334 8.93543 16.3334C8.9395 16.3334 8.94357 16.3334 8.94765 16.3334C8.95172 16.3334 8.9558 16.3334 8.95989 16.3334C8.96398 16.3334 8.96807 16.3334 8.97217 16.3334C8.97627 16.3334 8.98037 16.3334 8.98448 16.3334C8.98858 16.3334 8.9927 16.3334 8.99681 16.3334C9.00093 16.3334 9.00506 16.3334 9.00918 16.3334C9.01331 16.3334 9.01745 16.3334 9.02158 16.3334C9.02572 16.3334 9.02987 16.3334 9.03401 16.3334C9.03816 16.3334 9.04232 16.3334 9.04648 16.3334C9.05064 16.3334 9.0548 16.3334 9.05897 16.3334C9.06314 16.3334 9.06731 16.3334 9.07149 16.3334C9.07567 16.3334 9.07986 16.3334 9.08405 16.3334C9.08824 16.3334 9.09243 16.3334 9.09663 16.3334C9.10083 16.3334 9.10503 16.3334 9.10924 16.3334C9.11345 16.3334 9.11767 16.3334 9.12189 16.3334C9.12611 16.3334 9.13034 16.3334 9.13457 16.3334C9.1388 16.3334 9.14303 16.3334 9.14727 16.3334C9.15151 16.3334 9.15576 16.3334 9.16001 16.3334C9.16426 16.3334 9.16852 16.3334 9.17278 16.3334C9.17704 16.3334 9.1813 16.3334 9.18557 16.3334C9.18985 16.3334 9.19412 16.3334 9.1984 16.3334C9.20268 16.3334 9.20697 16.3334 9.21126 16.3334C9.21555 16.3334 9.21985 16.3334 9.22415 16.3334C9.22845 16.3334 9.23276 16.3334 9.23707 16.3334C9.24138 16.3334 9.2457 16.3334 9.25002 16.3334C9.25434 16.3334 9.25867 16.3334 9.263 16.3334C9.26733 16.3334 9.27167 16.3334 9.27601 16.3334C9.28035 16.3334 9.2847 16.3334 9.28905 16.3334C9.2934 16.3334 9.29776 16.3334 9.30212 16.3334C9.30648 16.3334 9.31085 16.3334 9.31522 16.3334C9.31959 16.3334 9.32397 16.3334 9.32835 16.3334C9.33274 16.3334 9.33712 16.3334 9.34152 16.3334C9.34591 16.3334 9.3503 16.3334 9.35471 16.3334C9.35911 16.3334 9.36352 16.3334 9.36793 16.3334C9.37234 16.3334 9.37676 16.3334 9.38118 16.3334C9.3856 16.3334 9.39003 16.3334 9.39446 16.3334C9.39889 16.3334 9.40333 16.3334 9.40777 16.3334C9.41222 16.3334 9.41666 16.3334 9.42111 16.3334C9.42557 16.3334 9.43002 16.3334 9.43449 16.3334C9.43895 16.3334 9.44342 16.3334 9.44789 16.3334C9.45236 16.3334 9.45684 16.3334 9.46132 16.3334C9.4658 16.3334 9.47029 16.3334 9.47478 16.3334C9.47927 16.3334 9.48377 16.3334 9.48827 16.3334C9.49277 16.3334 9.49728 16.3334 9.50179 16.3334C9.50631 16.3334 9.51082 16.3334 9.51535 16.3334C9.51987 16.3334 9.52439 16.3334 9.52893 16.3334C9.53346 16.3334 9.53799 16.3334 9.54254 16.3334C9.54708 16.3334 9.55163 16.3334 9.55618 16.3334C9.56073 16.3334 9.56529 16.3334 9.56985 16.3334C9.57441 16.3334 9.57898 16.3334 9.58355 16.3334C9.58812 16.3334 9.5927 16.3334 9.59728 16.3334C9.60186 16.3334 9.60644 16.3334 9.61104 16.3334C9.61563 16.3334 9.62022 16.3334 9.62482 16.3334C9.62943 16.3334 9.63403 16.3334 9.63864 16.3334C9.64325 16.3334 9.64787 16.3334 9.65249 16.3334C9.65711 16.3334 9.66174 16.3334 9.66637 16.3334C9.671 16.3334 9.67564 16.3334 9.68028 16.3334C9.68492 16.3334 9.68956 16.3334 9.69421 16.3334C9.69886 16.3334 9.70352 16.3334 9.70818 16.3334C9.71284 16.3334 9.7175 16.3334 9.72217 16.3334C9.72684 16.3334 9.73152 16.3334 9.7362 16.3334C9.74088 16.3334 9.74556 16.3334 9.75025 16.3334C9.75494 16.3334 9.75964 16.3334 9.76434 16.3334C9.76904 16.3334 9.77374 16.3334 9.77845 16.3334C9.78316 16.3334 9.78788 16.3334 9.79259 16.3334C9.79731 16.3334 9.80204 16.3334 9.80677 16.3334C9.8115 16.3334 9.81623 16.3334 9.82097 16.3334C9.82571 16.3334 9.83045 16.3334 9.8352 16.3334C9.83995 16.3334 9.8447 16.3334 9.84946 16.3334C9.85422 16.3334 9.85898 16.3334 9.86375 16.3334C9.86851 16.3334 9.87329 16.3334 9.87806 16.3334C9.88284 16.3334 9.88762 16.3334 9.89241 16.3334C9.8972 16.3334 9.90199 16.3334 9.90679 16.3334C9.91159 16.3334 9.91639 16.3334 9.92119 16.3334C9.926 16.3334 9.93081 16.3334 9.93563 16.3334C9.94045 16.3334 9.94527 16.3334 9.95009 16.3334C9.95492 16.3334 9.95975 16.3334 9.96459 16.3334C9.96942 16.3334 9.97426 16.3334 9.97911 16.3334C9.98395 16.3334 9.9888 16.3334 9.99366 16.3334C9.99851 16.3334 10.0034 16.3334 10.0082 16.3334C10.0131 16.3334 10.018 16.3334 10.0228 16.3334C10.0277 16.3334 10.0326 16.3334 10.0375 16.3334C10.0424 16.3334 10.0473 16.3334 10.0522 16.3334C10.057 16.3334 10.0619 16.3334 10.0668 16.3334C10.0718 16.3334 10.0767 16.3334 10.0816 16.3334C10.0865 16.3334 10.0914 16.3334 10.0963 16.3334C10.1012 16.3334 10.1062 16.3334 10.1111 16.3334C10.116 16.3334 10.121 16.3334 10.1259 16.3334C10.1309 16.3334 10.1358 16.3334 10.1408 16.3334C10.1457 16.3334 10.1507 16.3334 10.1556 16.3334C10.1606 16.3334 10.1656 16.3334 10.1705 16.3334C10.1755 16.3334 10.1805 16.3334 10.1854 16.3334C10.1904 16.3334 10.1954 16.3334 10.2004 16.3334C10.2054 16.3334 10.2104 16.3334 10.2154 16.3334C10.2204 16.3334 10.2254 16.3334 10.2304 16.3334C10.2354 16.3334 10.2404 16.3334 10.2454 16.3334C10.2505 16.3334 10.2555 16.3334 10.2605 16.3334C10.2655 16.3334 10.2706 16.3334 10.2756 16.3334C10.2806 16.3334 10.2857 16.3334 10.2907 16.3334C10.2958 16.3334 10.3008 16.3334 10.3059 16.3334C10.3109 16.3334 10.316 16.3334 10.3211 16.3334C10.3261 16.3334 10.3312 16.3334 10.3363 16.3334C10.3414 16.3334 10.3464 16.3334 10.3515 16.3334C10.3566 16.3334 10.3617 16.3334 10.3668 16.3334C10.3719 16.3334 10.377 16.3334 10.3821 16.3334C10.3872 16.3334 10.3923 16.3334 10.3974 16.3334C10.4025 16.3334 10.4076 16.3334 10.4128 16.3334C10.4179 16.3334 10.423 16.3334 10.4281 16.3334C10.4333 16.3334 10.4384 16.3334 10.4435 16.3334C10.4487 16.3334 10.4538 16.3334 10.459 16.3334C10.4641 16.3334 10.4693 16.3334 10.4745 16.3334C10.4796 16.3334 10.4848 16.3334 10.4899 16.3334C10.4951 16.3334 10.5003 16.3334 10.5055 16.3334C10.5106 16.3334 10.5158 16.3334 10.521 16.3334C10.5262 16.3334 10.5314 16.3334 10.5366 16.3334C10.5418 16.3334 10.547 16.3334 10.5522 16.3334C10.5574 16.3334 10.5626 16.3334 10.5678 16.3334C10.5731 16.3334 10.5783 16.3334 10.5835 16.3334C10.5887 16.3334 10.594 16.3334 10.5992 16.3334C10.6044 16.3334 10.6097 16.3334 10.6149 16.3334C10.6202 16.3334 10.6254 16.3334 10.6307 16.3334C10.6359 16.3334 10.6412 16.3334 10.6464 16.3334C10.6517 16.3334 10.657 16.3334 10.6622 16.3334C10.6675 16.3334 10.6728 16.3334 10.6781 16.3334C10.6833 16.3334 10.6886 16.3334 10.6939 16.3334C10.6992 16.3334 10.7045 16.3334 10.7098 16.3334C10.7151 16.3334 10.7204 16.3334 10.7257 16.3334C10.731 16.3334 10.7363 16.3334 10.7417 16.3334C10.747 16.3334 10.7523 16.3334 10.7576 16.3334C10.763 16.3334 10.7683 16.3334 10.7736 16.3334C10.779 16.3334 10.7843 16.3334 10.7897 16.3334C10.795 16.3334 10.8004 16.3334 10.8057 16.3334C10.8111 16.3334 10.8164 16.3334 10.8218 16.3334C10.8272 16.3334 10.8325 16.3334 10.8379 16.3334C10.8433 16.3334 10.8487 16.3334 10.854 16.3334C10.8594 16.3334 10.8648 16.3334 10.8702 16.3334C10.8756 16.3334 10.881 16.3334 10.8864 16.3334C10.8918 16.3334 10.8972 16.3334 10.9026 16.3334C10.908 16.3334 10.9134 16.3334 10.9189 16.3334C10.9243 16.3334 10.9297 16.3334 10.9351 16.3334C10.9406 16.3334 10.946 16.3334 10.9514 16.3334C10.9569 16.3334 10.9623 16.3334 10.9678 16.3334C10.9732 16.3334 10.9787 16.3334 10.9841 16.3334C10.9896 16.3334 10.995 16.3334 11.0005 16.3334C11.006 16.3334 11.0114 16.3334 11.0169 16.3334C11.0224 16.3334 11.0279 16.3334 11.0333 16.3334C11.0388 16.3334 11.0443 16.3334 11.0498 16.3334C11.0553 16.3334 11.0608 16.3334 11.0663 16.3334C11.0718 16.3334 11.0773 16.3334 11.0828 16.3334C11.0883 16.3334 11.0939 16.3334 11.0994 16.3334C11.1049 16.3334 11.1104 16.3334 11.1159 16.3334C11.1215 16.3334 11.127 16.3334 11.1325 16.3334C11.1381 16.3334 11.1436 16.3334 11.1492 16.3334C11.1547 16.3334 11.1603 16.3334 11.1658 16.3334C11.1714 16.3334 11.177 16.3334 11.1825 16.3334C11.1881 16.3334 11.1937 16.3334 11.1992 16.3334C11.2048 16.3334 11.2104 16.3334 11.216 16.3334C11.2215 16.3334 11.2271 16.3334 11.2327 16.3334C11.2383 16.3334 11.2439 16.3334 11.2495 16.3334C11.2551 16.3334 11.2607 16.3334 11.2663 16.3334C11.2719 16.3334 11.2776 16.3334 11.2832 16.3334C11.2888 16.3334 11.2944 16.3334 11.3001 16.3334C11.3057 16.3334 11.3113 16.3334 11.317 16.3334C11.3226 16.3334 11.3282 16.3334 11.3339 16.3334C11.3395 16.3334 11.3452 16.3334 11.3508 16.3334C11.3565 16.3334 11.3622 16.3334 11.3678 16.3334C11.3735 16.3334 11.3792 16.3334 11.3848 16.3334C11.3905 16.3334 11.3962 16.3334 11.4019 16.3334C11.4075 16.3334 11.4132 16.3334 11.4189 16.3334C11.4246 16.3334 11.4303 16.3334 11.436 16.3334C11.4417 16.3334 11.4474 16.3334 11.4531 16.3334C11.4588 16.3334 11.4645 16.3334 11.4703 16.3334C11.476 16.3334 11.4817 16.3334 11.4874 16.3334C11.4932 16.3334 11.4989 16.3334 11.5046 16.3334C11.5104 16.3334 11.5161 16.3334 11.5218 16.3334C11.5276 16.3334 11.5333 16.3334 11.5391 16.3334C11.5448 16.3334 11.5506 16.3334 11.5564 16.3334C11.5621 16.3334 11.5679 16.3334 11.5737 16.3334C11.5794 16.3334 11.5852 16.3334 11.591 16.3334C11.5968 16.3334 11.6026 16.3334 11.6083 16.3334C11.6141 16.3334 11.6199 16.3334 11.6257 16.3334C11.6315 16.3334 11.6373 16.3334 11.6431 16.3334C11.6489 16.3334 11.6548 16.3334 11.6606 16.3334C11.6664 16.3334 11.6722 16.3334 11.678 16.3334C11.6839 16.3334 11.6897 16.3334 11.6955 16.3334C11.7013 16.3334 11.7072 16.3334 11.713 16.3334C11.7189 16.3334 11.7247 16.3334 11.7306 16.3334C11.7364 16.3334 11.7423 16.3334 11.7481 16.3334C11.754 16.3334 11.7599 16.3334 11.7657 16.3334C11.7716 16.3334 11.7775 16.3334 11.7833 16.3334C11.7892 16.3334 11.7951 16.3334 11.801 16.3334C11.8069 16.3334 11.8128 16.3334 11.8187 16.3334C11.8245 16.3334 11.8304 16.3334 11.8363 16.3334C11.8423 16.3334 11.8482 16.3334 11.8541 16.3334C11.86 16.3334 11.8659 16.3334 11.8718 16.3334C11.8777 16.3334 11.8837 16.3334 11.8896 16.3334C11.8955 16.3334 11.9015 16.3334 11.9074 16.3334C11.9133 16.3334 11.9193 16.3334 11.9252 16.3334C11.9312 16.3334 11.9371 16.3334 11.9431 16.3334C11.949 16.3334 11.955 16.3334 11.961 16.3334C11.9669 16.3334 11.9729 16.3334 11.9789 16.3334C11.9848 16.3334 11.9908 16.3334 11.9968 16.3334C12.0028 16.3334 12.0088 16.3334 12.0147 16.3334C12.0207 16.3334 12.0267 16.3334 12.0327 16.3334C12.0387 16.3334 12.0447 16.3334 12.0507 16.3334C12.0567 16.3334 12.0628 16.3334 12.0688 16.3334C12.0748 16.3334 12.0808 16.3334 12.0868 16.3334C12.0929 16.3334 12.0989 16.3334 12.1049 16.3334C12.111 16.3334 12.117 16.3334 12.123 16.3334C12.1291 16.3334 12.1351 16.3334 12.1412 16.3334C12.1472 16.3334 12.1533 16.3334 12.1593 16.3334C12.1654 16.3334 12.1715 16.3334 12.1775 16.3334C12.1836 16.3334 12.1897 16.3334 12.1957 16.3334C12.2018 16.3334 12.2079 16.3334 12.214 16.3334C12.2201 16.3334 12.2262 16.3334 12.2322 16.3334C12.2383 16.3334 12.2444 16.3334 12.2505 16.3334C12.2566 16.3334 12.2627 16.3334 12.2689 16.3334C12.275 16.3334 12.2811 16.3334 12.2872 16.3334C12.2933 16.3334 12.2994 16.3334 12.3056 16.3334C12.3117 16.3334 12.3178 16.3334 12.324 16.3334C12.3301 16.3334 12.3362 16.3334 12.3424 16.3334C12.3485 16.3334 12.3547 16.3334 12.3608 16.3334C12.367 16.3334 12.3731 16.3334 12.3793 16.3334C12.3855 16.3334 12.3916 16.3334 12.3978 16.3334C12.404 16.3334 12.4101 16.3334 12.4163 16.3334C12.4225 16.3334 12.4287 16.3334 12.4349 16.3334C12.4411 16.3334 12.4472 16.3334 12.4534 16.3334C12.4596 16.3334 12.4658 16.3334 12.472 16.3334C12.4782 16.3334 12.4845 16.3334 12.4907 16.3334C12.4969 16.3334 12.5031 16.3334 12.5093 16.3334C12.5155 16.3334 12.5218 16.3334 12.528 16.3334C12.5342 16.3334 12.5404 16.3334 12.5467 16.3334C12.5529 16.3334 12.5592 16.3334 12.5654 16.3334C12.5717 16.3334 12.5779 16.3334 12.5842 16.3334C12.5904 16.3334 12.5967 16.3334 12.6029 16.3334C12.6092 16.3334 12.6155 16.3334 12.6217 16.3334C12.628 16.3334 12.6343 16.3334 12.6406 16.3334C12.6468 16.3334 12.6531 16.3334 12.6594 16.3334C12.6657 16.3334 12.672 16.3334 12.6783 16.3334C12.6846 16.3334 12.6909 16.3334 12.6972 16.3334C12.7035 16.3334 12.7098 16.3334 12.7161 16.3334C12.7224 16.3334 12.7287 16.3334 12.7351 16.3334C12.7414 16.3334 12.7477 16.3334 12.754 16.3334C12.7604 16.3334 12.7667 16.3334 12.773 16.3334C12.7794 16.3334 12.7857 16.3334 12.7921 16.3334C12.7984 16.3334 12.8048 16.3334 12.8111 16.3334C12.8175 16.3334 12.8238 16.3334 12.8302 16.3334C12.8366 16.3334 12.8429 16.3334 12.8493 16.3334C12.8557 16.3334 12.862 16.3334 12.8684 16.3334C12.8748 16.3334 12.8812 16.3334 12.8876 16.3334C12.894 16.3334 12.9003 16.3334 12.9067 16.3334C12.9131 16.3334 12.9195 16.3334 12.9259 16.3334C12.9323 16.3334 12.9388 16.3334 12.9452 16.3334C12.9516 16.3334 12.958 16.3334 12.9644 16.3334C12.9708 16.3334 12.9773 16.3334 12.9837 16.3334C12.9901 16.3334 12.9965 16.3334 13.003 16.3334C13.0094 16.3334 13.0159 16.3334 13.0223 16.3334C13.0288 16.3334 13.0352 16.3334 13.0417 16.3334C13.0481 16.3334 13.0546 16.3334 13.061 16.3334C13.0675 16.3334 13.074 16.3334 13.0804 16.3334C13.0869 16.3334 13.0934 16.3334 13.0998 16.3334C13.1063 16.3334 13.1128 16.3334 13.1193 16.3334C13.1258 16.3334 13.1323 16.3334 13.1388 16.3334C13.1453 16.3334 13.1518 16.3334 13.1583 16.3334C13.1648 16.3334 13.1713 16.3334 13.1778 16.3334C13.1843 16.3334 13.1908 16.3334 13.1973 16.3334C13.2038 16.3334 13.2104 16.3334 13.2169 16.3334C13.2234 16.3334 13.2299 16.3334 13.2365 16.3334C13.243 16.3334 13.2495 16.3334 13.2561 16.3334C13.2626 16.3334 13.2692 16.3334 13.2757 16.3334C13.2823 16.3334 13.2888 16.3334 13.2954 16.3334C13.302 16.3334 13.3085 16.3334 13.3151 16.3334C13.3217 16.3334 13.3282 16.3334 13.3348 16.3334C13.3414 16.3334 13.348 16.3334 13.3545 16.3334C13.3611 16.3334 13.3677 16.3334 13.3743 16.3334C13.3809 16.3334 13.3875 16.3334 13.3941 16.3334C13.4007 16.3334 13.4073 16.3334 13.4139 16.3334C13.4205 16.3334 13.4271 16.3334 13.4337 16.3334C13.4403 16.3334 13.447 16.3334 13.4536 16.3334C13.4602 16.3334 13.4668 16.3334 13.4735 16.3334C13.4801 16.3334 13.4867 16.3334 13.4934 16.3334C13.5 16.3334 13.5067 16.3334 13.5133 16.3334C13.52 16.3334 13.5266 16.3334 13.5333 16.3334C13.5399 16.3334 13.5466 16.3334 13.5532 16.3334C13.5599 16.3334 13.5666 16.3334 13.5732 16.3334C13.5799 16.3334 13.5866 16.3334 13.5933 16.3334C13.6 16.3334 13.6066 16.3334 13.6133 16.3334C13.62 16.3334 13.6267 16.3334 13.6334 16.3334C13.6401 16.3334 13.6468 16.3334 13.6535 16.3334C13.6602 16.3334 13.6669 16.3334 13.6736 16.3334C13.6803 16.3334 13.687 16.3334 13.6938 16.3334C13.7005 16.3334 13.7072 16.3334 13.7139 16.3334C13.7207 16.3334 13.7274 16.3334 13.7341 16.3334C13.7409 16.3334 13.7476 16.3334 13.7543 16.3334C13.7611 16.3334 13.7678 16.3334 13.7746 16.3334C13.7813 16.3334 13.7881 16.3334 13.7948 16.3334C13.8016 16.3334 13.8084 16.3334 13.8151 16.3334C13.8219 16.3334 13.8287 16.3334 13.8354 16.3334C13.8422 16.3334 13.849 16.3334 13.8558 16.3334C13.8626 16.3334 13.8694 16.3334 13.8761 16.3334C13.8829 16.3334 13.8897 16.3334 13.8965 16.3334C13.9033 16.3334 13.9101 16.3334 13.9169 16.3334C13.9237 16.3334 13.9305 16.3334 13.9374 16.3334C13.9442 16.3334 13.951 16.3334 13.9578 16.3334C13.9646 16.3334 13.9715 16.3334 13.9783 16.3334C13.9851 16.3334 13.992 16.3334 13.9988 16.3334C14.0056 16.3334 14.0125 16.3334 14.0193 16.3334V14.3334Z" fill="#707070"/>
<path d="M11.5002 15.3335L11.5 18" stroke="#707070" stroke-width="2" stroke-linecap="round"/>
<path d="M11.5002 5L11.5002 7.50024" stroke="#707070" stroke-width="2" stroke-linecap="round"/>
<circle cx="11.5" cy="11.5" r="10.5" stroke="#707070" stroke-width="2"/>
</svg>
