<svg width="22" height="25" viewBox="0 0 22 25" fill="none" xmlns="http://www.w3.org/2000/svg">
<g clip-path="url(#clip0_10_35)">
<path d="M22 0H0V25H22V0Z" fill="white"/>
<path d="M11.9957 23.5675H5.81383C5.00706 23.5664 4.23365 23.2279 3.66318 22.6261C3.0927 22.0244 2.77174 21.2086 2.77067 20.3576V4.64242C2.77174 3.79145 3.0927 2.97565 3.66318 2.37392C4.23365 1.7722 5.00706 1.43365 5.81383 1.43252H12.0963C12.186 1.4334 12.275 1.41552 12.3581 1.37992C12.4412 1.34432 12.5168 1.2917 12.5806 1.22511C12.6443 1.15851 12.6949 1.07925 12.7294 0.991918C12.7639 0.904582 12.7817 0.810897 12.7817 0.716275C12.7817 0.621652 12.7639 0.527967 12.7294 0.440631C12.6949 0.353296 12.6443 0.27404 12.5806 0.207444C12.5168 0.140847 12.4412 0.0882287 12.3581 0.0526284C12.275 0.0170282 12.186 -0.000848546 12.0963 3.09431e-05H5.81383C4.64693 0.00132502 3.52817 0.490848 2.70304 1.36118C1.87792 2.23152 1.41382 3.41158 1.4126 4.64242V20.3576C1.41382 21.5885 1.87792 22.7685 2.70304 23.6389C3.52817 24.5092 4.64693 24.9987 5.81383 25H11.9957C12.0854 25.0009 12.1744 24.983 12.2575 24.9474C12.3406 24.9118 12.4162 24.8592 12.48 24.7926C12.5437 24.726 12.5943 24.6468 12.6288 24.5594C12.6633 24.4721 12.6811 24.3784 12.6811 24.2838C12.6811 24.1892 12.6633 24.0955 12.6288 24.0081C12.5943 23.9208 12.5437 23.8415 12.48 23.775C12.4162 23.7084 12.3406 23.6557 12.2575 23.6201C12.1744 23.5845 12.0854 23.5667 11.9957 23.5675Z" fill="#707070"/>
<path d="M20.3982 11.7861L16.3021 7.46554C16.2425 7.40088 16.1714 7.34935 16.0928 7.31394C16.0142 7.27853 15.9297 7.25996 15.8443 7.2593C15.7588 7.25863 15.6741 7.2759 15.595 7.31008C15.5159 7.34427 15.4441 7.39469 15.3836 7.45842C15.3232 7.52216 15.2754 7.59793 15.243 7.68133C15.2105 7.76473 15.1941 7.8541 15.1947 7.94424C15.1953 8.03438 15.2129 8.12349 15.2465 8.2064C15.28 8.28931 15.3289 8.36436 15.3902 8.42718L18.388 11.5893H5.31175C5.14081 11.5893 4.97688 11.6609 4.85601 11.7884C4.73514 11.9159 4.66724 12.0888 4.66724 12.2691C4.66724 12.4494 4.73514 12.6223 4.85601 12.7498C4.97688 12.8773 5.14081 12.949 5.31175 12.949H18.3886L15.3907 16.1111C15.3009 16.2063 15.2398 16.3274 15.2149 16.4592C15.1901 16.5909 15.2027 16.7274 15.2511 16.8517C15.2996 16.9759 15.3817 17.0823 15.4872 17.1575C15.5927 17.2327 15.7169 17.2734 15.8442 17.2745C15.9288 17.2748 16.0125 17.2571 16.0905 17.2225C16.1684 17.1879 16.2389 17.1371 16.2978 17.0731L20.394 12.7524C20.4548 12.6895 20.5033 12.6145 20.5365 12.5318C20.5697 12.449 20.587 12.3601 20.5874 12.2702C20.5878 12.1804 20.5712 12.0913 20.5388 12.0082C20.5063 11.9251 20.4585 11.8496 20.3982 11.7861Z" fill="#707070"/>
</g>
<defs>
<clipPath id="clip0_10_35">
<rect width="22" height="25" fill="white"/>
</clipPath>
</defs>
</svg>
