<svg width="25" height="26" viewBox="0 0 25 26" fill="none" xmlns="http://www.w3.org/2000/svg">
<path d="M25 0H0V26H25V0Z" fill="white"/>
<path d="M24.2676 9.29582H21.8333C21.4586 4.64169 17.4157 0.965332 12.5 0.965332C7.58427 0.965332 3.5414 4.64169 3.16667 9.29582H0.7324C0.538161 9.29584 0.351882 9.37033 0.214535 9.50292C0.0771867 9.63551 1.76782e-05 9.81533 0 10.0028L0 17.5761C1.76782e-05 17.7636 0.0771867 17.9434 0.214535 18.076C0.351882 18.2086 0.538161 18.2831 0.7324 18.2831H3.87047C4.06471 18.2831 4.25098 18.2086 4.38833 18.076C4.52568 17.9434 4.60285 17.7636 4.60287 17.5761V10.0028C4.60287 7.98097 5.43488 6.04191 6.91588 4.61223C8.39688 3.18256 10.4056 2.37937 12.5 2.37937C14.5945 2.37937 16.6031 3.18256 18.0841 4.61223C19.5651 6.04191 20.3971 7.98097 20.3971 10.0028V17.5761C20.3957 18.7941 19.8938 19.9618 19.0016 20.8231C18.1094 21.6844 16.8998 22.1689 15.638 22.1703H14.6813C14.5075 21.6705 14.1553 21.2468 13.6877 20.9746C13.22 20.7025 12.6674 20.5997 12.1285 20.6847C11.5896 20.7697 11.0995 21.0369 10.7459 21.4386C10.3923 21.8402 10.1981 22.3502 10.1981 22.8773C10.1981 23.4044 10.3923 23.9144 10.7459 24.316C11.0995 24.7177 11.5896 24.9849 12.1285 25.0699C12.6674 25.1549 13.22 25.0521 13.6877 24.78C14.1553 24.5079 14.5075 24.0841 14.6813 23.5844H15.638C17.1613 23.5825 18.6312 23.0422 19.7699 22.0654C20.9087 21.0887 21.6375 19.7432 21.8187 18.2831H24.2676C24.4619 18.2831 24.6481 18.2086 24.7855 18.076C24.9228 17.9434 25 17.7636 25 17.5761V10.0028C25 9.81533 24.9228 9.63551 24.7855 9.50292C24.6481 9.37033 24.4618 9.29584 24.2676 9.29582ZM3.13807 16.869H1.46473V10.7101H3.13807V16.869ZM12.5 23.6849C12.3345 23.6849 12.1728 23.6375 12.0352 23.5488C11.8976 23.46 11.7904 23.3339 11.7271 23.1863C11.6638 23.0388 11.6472 22.8764 11.6795 22.7197C11.7118 22.5631 11.7914 22.4192 11.9084 22.3062C12.0254 22.1933 12.1745 22.1164 12.3368 22.0852C12.4991 22.054 12.6673 22.07 12.8202 22.1312C12.973 22.1923 13.1037 22.2958 13.1956 22.4286C13.2875 22.5614 13.3366 22.7176 13.3366 22.8773C13.3363 23.0914 13.2481 23.2967 13.0913 23.4481C12.9344 23.5995 12.7218 23.6846 12.5 23.6849ZM23.5351 16.869H21.8618V10.7101H23.5351V16.869Z" fill="#707070"/>
</svg>
