<svg width="24" height="22" viewBox="0 0 24 22" fill="none" xmlns="http://www.w3.org/2000/svg">
<path d="M8.42331 6.59867C8.27064 6.92301 7.95606 7.14081 7.59874 7.16957L1.48463 7.66159C0.585814 7.73392 0.234325 8.8653 0.933925 9.43422L5.75068 13.3512C6.06227 13.6046 6.19205 14.0198 6.0802 14.4056L4.27543 20.63C4.02526 21.4928 4.95125 22.2222 5.73148 21.777L11.4927 18.4895C11.8061 18.3106 12.1916 18.3145 12.5014 18.4997L18.0754 21.8319C18.8227 22.2786 19.7443 21.6233 19.5677 20.7708L18.2372 14.3467C18.1635 13.9904 18.289 13.6221 18.5651 13.3851L23.179 9.42461C23.8535 8.84567 23.4939 7.74034 22.6079 7.66904L16.4013 7.16957C16.0439 7.14081 15.7294 6.92301 15.5767 6.59867L12.9048 0.922203C12.5445 0.156709 11.4555 0.156708 11.0952 0.922202L8.42331 6.59867Z" fill="#707070"/>
</svg>
