<svg width="153" height="138" viewBox="0 0 153 138" fill="none" xmlns="http://www.w3.org/2000/svg">
<path d="M12.4893 0C10.7627 0 9.36697 1.40509 9.36697 3.13636V28.2273C9.36697 29.9617 10.7627 31.3636 12.4893 31.3636H46.8349C48.5615 31.3636 49.9572 29.9617 49.9572 28.2273V3.13636C49.9572 1.40509 48.5615 0 46.8349 0H12.4893ZM116.038 26.6591C110.186 26.6591 105.245 28.5423 102.592 31.3636H84.3028C83.889 31.3578 83.4782 31.4345 83.0943 31.5895C82.7103 31.7445 82.3609 31.9746 82.0662 32.2664C81.7716 32.5582 81.5376 32.906 81.3779 33.2894C81.2182 33.6728 81.136 34.0844 81.136 34.5C81.136 34.9156 81.2182 35.3272 81.3779 35.7106C81.5376 36.094 81.7716 36.4418 82.0662 36.7336C82.3609 37.0254 82.7103 37.2555 83.0943 37.4105C83.4782 37.5655 83.889 37.6422 84.3028 37.6364H100.725C101.928 42.1398 108.212 45.4773 116.038 45.4773C119.492 45.4773 121.762 44.8093 123.179 43.3823C124.943 41.6008 124.939 39.0899 124.93 36.6624L124.923 36.0621L124.93 35.4679C124.939 33.0435 124.947 30.5355 123.179 28.7541C121.762 27.3239 119.5 26.6591 116.057 26.6591H116.038ZM6.24465 37.6364C4.518 37.6364 3.12232 39.0415 3.12232 40.7727V65.8636C3.12232 67.5949 4.518 69 6.24465 69H32.5404C33.5862 69 34.4451 68.1917 34.634 67.1631C35.4123 62.9256 37.8009 58.3072 41.953 56.9038C42.9237 56.5757 43.7125 55.7433 43.7125 54.7187V40.7727C43.7125 39.0415 42.3169 37.6364 40.5902 37.6364H6.24465ZM102.755 41C105.449 61.5777 102.484 89.7137 93.1331 100.97C88.2747 106.813 82.4343 109.773 75.7713 109.773C72.6895 109.773 70.864 107.736 69.8742 106.024C67.4901 101.897 66.867 94.2313 71.0308 83.9998C71.6652 82.441 70.2964 80.6775 68.6282 80.9003C65.4285 81.3277 61.7438 81.5455 57.5618 81.5455C53.8823 81.5455 45.4244 81.5196 39.8035 78.5194C39.2302 78.2137 38.6933 77.8736 38.1875 77.5025C37.4046 76.9283 36.7002 76.2815 36.1233 75.5356C35.869 75.2069 35.4331 75.0915 35.0591 75.2727H3.12232C1.39568 75.2727 0 76.6778 0 78.4091C0 80.1435 1.39568 81.5455 3.12232 81.5455H17.2507C20.0427 81.5455 21.4689 85.2051 19.6944 87.3606C14.6503 93.4876 12.7475 99.0057 12.6052 99.506C12.371 100.34 12.488 101.238 12.9345 101.981C13.381 102.724 14.11 103.251 14.953 103.433L59.4952 115.364C61.1831 115.816 62.9229 116.045 64.6702 116.045H94.7376C95.9307 116.045 96.8489 115.007 96.8077 113.815C96.7975 113.52 96.7921 113.219 96.7921 112.909C96.7921 96.2017 112.841 81.5455 131.138 81.5455C132.006 81.5455 132.711 80.8331 132.597 79.9722C130.961 67.6107 123.163 51.8223 118 45C116.707 45.229 114.527 44 113 44C108.398 44 106.199 42.6215 102.755 41ZM44.5907 62.7273C44.2873 62.7273 43.9965 62.8206 43.7125 62.9662C43.7079 62.9686 43.705 62.976 43.7003 62.9784C43.3443 63.164 43.0129 63.4639 42.7002 63.8299C42.6574 63.8798 42.614 63.9242 42.5722 63.9769C42.2636 64.3667 41.9788 64.8136 41.7306 65.3246C41.4182 65.9647 41.1779 66.6794 40.9866 67.4134C40.9263 67.6448 40.899 67.86 40.8524 68.0934C40.7928 68.3915 40.7049 68.686 40.6695 68.9816C40.6957 68.9809 40.7166 68.9646 40.7427 68.9632C40.6946 69.3622 40.5902 69.7733 40.5902 70.1516C40.5902 73.3445 46.3932 75.2727 57.5618 75.2727C68.7366 75.2727 78.0581 73.3476 78.0581 70.1516C78.0581 66.962 76.2684 62.7273 74.0515 62.7273H44.5907ZM131.138 87.8182C117.009 87.8182 103.037 99.0275 103.037 112.909C103.037 121.503 106.752 122.318 109.281 122.318C114.461 122.318 112.404 111.648 124.893 106.636C128.562 105.165 132.169 104.707 135.51 104.707C141.158 104.707 146.044 106.024 149.207 106.024C151.595 106.024 153 105.271 153 102.624C152.997 100.363 148.947 87.8182 131.138 87.8182ZM135.596 111.679C135.13 111.202 134.459 111.007 133.793 111.048C131.402 111.196 129.226 111.654 127.21 112.462C126.95 112.566 126.702 112.674 126.462 112.784C125.894 113.045 125.429 113.502 125.226 114.094C125.015 114.708 124.893 115.36 124.893 116.045C124.893 119.505 127.694 122.318 131.138 122.318C134.582 122.318 137.382 119.505 137.382 116.045C137.382 114.343 136.697 112.806 135.596 111.679ZM19.3377 111.096C18.9661 112.714 18.7339 114.368 18.7339 116.045C18.7339 128.149 28.5412 138 40.5902 138C50.4942 138 58.8681 131.34 61.5439 122.251C61.1693 122.223 60.7933 122.207 60.428 122.11L52.3965 119.954C50.751 124.95 46.1105 128.591 40.5902 128.591C33.7024 128.591 28.1009 122.964 28.1009 116.045C28.1009 115.177 28.2097 114.334 28.3814 113.516L19.3377 111.096ZM143.383 111.715C143.118 111.675 142.906 111.943 142.99 112.198C143.389 113.414 143.627 114.699 143.627 116.045C143.627 122.964 138.025 128.591 131.138 128.591C125.888 128.591 121.43 125.304 119.588 120.682C119.518 120.507 119.272 120.494 119.191 120.664C118.196 122.723 116.712 125.719 113.873 127.368C113.332 127.682 113.105 128.386 113.471 128.893C117.48 134.448 123.955 138 131.138 138C143.187 138 152.994 128.149 152.994 116.045C152.994 114.982 152.891 113.929 152.726 112.888C152.635 112.313 152.058 111.963 151.486 112.074C150.786 112.212 150.034 112.297 149.201 112.297C147.399 112.297 145.45 112.016 143.383 111.715ZM34.437 115.145C34.3933 115.443 34.3456 115.738 34.3456 116.045C34.3456 119.505 37.1463 122.318 40.5902 122.318C43.2223 122.318 45.4688 120.664 46.3836 118.343L34.437 115.145Z" fill="#707070"/>
</svg>
