<svg width="50" height="24" viewBox="0 0 50 24" fill="none" xmlns="http://www.w3.org/2000/svg">
<rect width="50" height="23.6111" rx="11.8056" fill="#707070"/>
<circle cx="11.5" cy="11.4446" r="7.5" fill="white"/>
<path d="M29.628 11.7446C29.628 12.3446 29.528 12.9046 29.328 13.4246C29.128 13.9446 28.844 14.4046 28.476 14.8046C28.116 15.1966 27.684 15.5046 27.18 15.7286C26.684 15.9526 26.14 16.0646 25.548 16.0646C24.956 16.0646 24.412 15.9526 23.916 15.7286C23.42 15.5046 22.988 15.1966 22.62 14.8046C22.26 14.4046 21.98 13.9446 21.78 13.4246C21.58 12.9046 21.48 12.3446 21.48 11.7446C21.48 11.1446 21.58 10.5846 21.78 10.0646C21.98 9.54458 22.26 9.08858 22.62 8.69658C22.988 8.29658 23.42 7.98458 23.916 7.76058C24.412 7.53658 24.956 7.42458 25.548 7.42458C26.14 7.42458 26.684 7.53658 27.18 7.76058C27.684 7.98458 28.116 8.29658 28.476 8.69658C28.844 9.08858 29.128 9.54458 29.328 10.0646C29.528 10.5846 29.628 11.1446 29.628 11.7446ZM28.068 11.7446C28.068 11.2086 27.96 10.7246 27.744 10.2926C27.528 9.85258 27.232 9.50458 26.856 9.24858C26.48 8.99258 26.044 8.86458 25.548 8.86458C25.052 8.86458 24.616 8.99258 24.24 9.24858C23.864 9.50458 23.568 9.84858 23.352 10.2806C23.144 10.7126 23.04 11.2006 23.04 11.7446C23.04 12.2806 23.144 12.7686 23.352 13.2086C23.568 13.6406 23.864 13.9846 24.24 14.2406C24.616 14.4966 25.052 14.6246 25.548 14.6246C26.044 14.6246 26.48 14.4966 26.856 14.2406C27.232 13.9846 27.528 13.6406 27.744 13.2086C27.96 12.7686 28.068 12.2806 28.068 11.7446ZM31.7615 15.9446C31.5375 15.9446 31.3535 15.8766 31.2095 15.7406C31.0735 15.5966 31.0055 15.4206 31.0055 15.2126V8.27658C31.0055 8.06858 31.0735 7.89658 31.2095 7.76058C31.3535 7.61658 31.5295 7.54458 31.7375 7.54458H35.6375C35.8455 7.54458 36.0175 7.61258 36.1535 7.74858C36.2975 7.87658 36.3695 8.04458 36.3695 8.25258C36.3695 8.42858 36.2975 8.58458 36.1535 8.72058C36.0175 8.85658 35.8455 8.92458 35.6375 8.92458H32.3975L32.5055 8.78058V11.1926L32.4215 11.0366H35.0975C35.3055 11.0366 35.4775 11.1046 35.6135 11.2406C35.7575 11.3686 35.8295 11.5366 35.8295 11.7446C35.8295 11.9206 35.7575 12.0766 35.6135 12.2126C35.4775 12.3486 35.3055 12.4166 35.0975 12.4166H32.3975L32.5055 12.3086V15.2126C32.5055 15.4206 32.4295 15.5966 32.2775 15.7406C32.1335 15.8766 31.9615 15.9446 31.7615 15.9446ZM38.4998 15.9446C38.2758 15.9446 38.0918 15.8766 37.9478 15.7406C37.8118 15.5966 37.7438 15.4206 37.7438 15.2126V8.27658C37.7438 8.06858 37.8118 7.89658 37.9478 7.76058C38.0918 7.61658 38.2678 7.54458 38.4758 7.54458H42.3758C42.5838 7.54458 42.7558 7.61258 42.8918 7.74858C43.0358 7.87658 43.1078 8.04458 43.1078 8.25258C43.1078 8.42858 43.0358 8.58458 42.8918 8.72058C42.7558 8.85658 42.5838 8.92458 42.3758 8.92458H39.1358L39.2438 8.78058V11.1926L39.1598 11.0366H41.8358C42.0438 11.0366 42.2158 11.1046 42.3518 11.2406C42.4958 11.3686 42.5678 11.5366 42.5678 11.7446C42.5678 11.9206 42.4958 12.0766 42.3518 12.2126C42.2158 12.3486 42.0438 12.4166 41.8358 12.4166H39.1358L39.2438 12.3086V15.2126C39.2438 15.4206 39.1678 15.5966 39.0158 15.7406C38.8718 15.8766 38.6998 15.9446 38.4998 15.9446Z" fill="white"/>
</svg>
