<svg width="50" height="24" viewBox="0 0 50 24" fill="none" xmlns="http://www.w3.org/2000/svg">
<rect y="0.0554199" width="50" height="23.6111" rx="11.8056" fill="#3EC895"/>
<circle cx="38.5" cy="11.5" r="7.5" fill="white"/>
<path d="M15.628 11.8C15.628 12.4 15.528 12.96 15.328 13.48C15.128 14 14.844 14.46 14.476 14.86C14.116 15.252 13.684 15.56 13.18 15.784C12.684 16.008 12.14 16.12 11.548 16.12C10.956 16.12 10.412 16.008 9.916 15.784C9.42 15.56 8.988 15.252 8.62 14.86C8.26 14.46 7.98 14 7.78 13.48C7.58 12.96 7.48 12.4 7.48 11.8C7.48 11.2 7.58 10.64 7.78 10.12C7.98 9.6 8.26 9.144 8.62 8.752C8.988 8.352 9.42 8.04 9.916 7.816C10.412 7.592 10.956 7.48 11.548 7.48C12.14 7.48 12.684 7.592 13.18 7.816C13.684 8.04 14.116 8.352 14.476 8.752C14.844 9.144 15.128 9.6 15.328 10.12C15.528 10.64 15.628 11.2 15.628 11.8ZM14.068 11.8C14.068 11.264 13.96 10.78 13.744 10.348C13.528 9.908 13.232 9.56 12.856 9.304C12.48 9.048 12.044 8.92 11.548 8.92C11.052 8.92 10.616 9.048 10.24 9.304C9.864 9.56 9.568 9.904 9.352 10.336C9.144 10.768 9.04 11.256 9.04 11.8C9.04 12.336 9.144 12.824 9.352 13.264C9.568 13.696 9.864 14.04 10.24 14.296C10.616 14.552 11.052 14.68 11.548 14.68C12.044 14.68 12.48 14.552 12.856 14.296C13.232 14.04 13.528 13.696 13.744 13.264C13.96 12.824 14.068 12.336 14.068 11.8ZM23.3775 7.6C23.5695 7.6 23.7255 7.664 23.8455 7.792C23.9655 7.92 24.0255 8.08 24.0255 8.272V15.268C24.0255 15.476 23.9535 15.652 23.8095 15.796C23.6735 15.932 23.5015 16 23.2935 16C23.1895 16 23.0815 15.984 22.9695 15.952C22.8655 15.912 22.7855 15.86 22.7295 15.796L18.0135 9.808L18.3255 9.616V15.328C18.3255 15.52 18.2615 15.68 18.1335 15.808C18.0135 15.936 17.8535 16 17.6535 16C17.4615 16 17.3055 15.936 17.1855 15.808C17.0655 15.68 17.0055 15.52 17.0055 15.328V8.332C17.0055 8.124 17.0735 7.952 17.2095 7.816C17.3535 7.672 17.5295 7.6 17.7375 7.6C17.8495 7.6 17.9655 7.624 18.0855 7.672C18.2055 7.712 18.2935 7.776 18.3495 7.864L22.9215 13.696L22.7175 13.84V8.272C22.7175 8.08 22.7775 7.92 22.8975 7.792C23.0175 7.664 23.1775 7.6 23.3775 7.6Z" fill="white"/>
</svg>
