<svg width="39" height="39" viewBox="0 0 39 39" fill="none" xmlns="http://www.w3.org/2000/svg">
<path fill-rule="evenodd" clip-rule="evenodd" d="M19.5 39C30.2695 39 39 30.2695 39 19.5C39 8.73044 30.2695 0 19.5 0C8.73044 0 0 8.73044 0 19.5C0 30.2695 8.73044 39 19.5 39ZM25.35 15.6C25.35 18.831 22.731 21.45 19.5 21.45C16.269 21.45 13.65 18.831 13.65 15.6C13.65 12.3691 16.269 9.75 19.5 9.75C22.731 9.75 25.35 12.3691 25.35 15.6ZM7.79858 29.25C10.4668 25.6977 14.7149 23.4 19.4996 23.4C24.2843 23.4 28.5326 25.6977 31.2008 29.25C28.5326 32.8023 24.2843 35.1 19.4996 35.1C14.7149 35.1 10.4668 32.8023 7.79858 29.25Z" fill="#324D84"/>
</svg>
